<svg xmlns="http://www.w3.org/2000/svg" viewBox="0 0 15 15" width="15px" height="15px"><style>.st0{fill:#1e605f}</style><path id="Tracé_91" class="st0" d="M7.5 0C3.36 0 0 3.36 0 7.5S3.36 15 7.5 15 15 11.64 15 7.5C15 3.36 11.64 0 7.5 0zm0 14.5c-3.87 0-7-3.13-7-7s3.13-7 7-7 7 3.13 7 7c0 3.86-3.14 7-7 7z"/><path id="Tracé_92" class="st0" d="M7.65 6.44V4.06a.235.235 0 1 0-.47-.01v2.39c-.33.09-.58.35-.67.68H4.83a.235.235 0 1 0-.01.47H6.5c.13.5.64.81 1.14.68.5-.13.81-.64.68-1.14a.907.907 0 0 0-.67-.69zm-.23 1.38a.47.47 0 1 1 .47-.47c0 .26-.21.47-.47.47z"/><path id="Tracé_93" class="st0" d="M7.5 2.32c.13 0 .24-.11.24-.23v-.24c0-.13-.11-.23-.24-.23s-.23.11-.23.23v.24c0 .13.1.23.23.23z"/><path id="Tracé_94" class="st0" d="M7.5 12.62c-.13 0-.24.11-.24.24v.24c0 .13.11.23.24.23s.23-.11.23-.23v-.24c0-.13-.1-.24-.23-.24z"/><path id="Tracé_95" class="st0" d="M13.12 7.24h-.24c-.13 0-.23.11-.23.24s.11.23.23.23h.24c.13 0 .24-.1.24-.23s-.11-.24-.24-.24z"/><path id="Tracé_96" class="st0" d="M2.12 7.24h-.24c-.13 0-.24.1-.24.23s.11.23.24.23h.23c.13 0 .24-.1.24-.23s-.1-.23-.23-.23z"/><path id="Tracé_97" class="st0" d="M11.23 3.41l-.17.17c-.1.09-.1.24-.02.33.09.1.24.1.33.02.01 0 .01-.01.02-.02l.17-.17c.1-.09.1-.24.02-.33-.09-.1-.24-.1-.33-.02-.01.01-.02.01-.02.02z"/><path id="Tracé_98" class="st0" d="M3.61 11.03l-.17.17c-.1.09-.1.24-.02.33s.24.1.33.02c.01 0 .01-.01.02-.02l.17-.17c.1-.09.1-.24.02-.33s-.24-.1-.33-.02l-.02.02z"/><path id="Tracé_99" class="st0" d="M11.39 11.03c-.09-.1-.24-.1-.33-.02-.1.09-.1.24-.02.33 0 .01.01.01.02.02l.17.17c.09.1.24.1.33.02.1-.09.1-.24.02-.33 0-.01-.01-.01-.02-.02l-.17-.17z"/><path id="Tracé_100" class="st0" d="M3.77 3.41c-.09-.1-.24-.1-.33-.02-.1.09-.1.24-.02.33 0 .01.01.01.02.02l.17.17c.1.09.24.08.33-.02.08-.09.08-.23 0-.32l-.17-.16z"/></svg>