<svg xmlns="http://www.w3.org/2000/svg" viewBox="0 0 15 15" width="15px" height="15px"><style>.st0{fill:#1e605f}</style><path id="Tracé_101" class="st0" d="M7.5 3.28a1.931 1.931 0 0 0 0 3.86 1.931 1.931 0 0 0 0-3.86zm0 3.31c-.76 0-1.38-.62-1.38-1.38 0-.76.62-1.38 1.38-1.38.76 0 1.38.62 1.38 1.38 0 .76-.62 1.38-1.38 1.38z"/><path id="Tracé_102" class="st0" d="M11.24 1.54a5.318 5.318 0 0 0-7.48 0 5.95 5.95 0 0 0-.5 7.38L7.5 15l4.23-6.07a5.95 5.95 0 0 0-.49-7.39zm.04 7.07l-3.79 5.43L3.7 8.6c-1.43-2.05-1.24-4.82.44-6.68a4.756 4.756 0 0 1 6.7 0 5.379 5.379 0 0 1 .44 6.69z"/></svg>