<svg xmlns="http://www.w3.org/2000/svg" viewBox="0 0 15 15" width="15px" height="15px"><style>.st0{fill:#1e605f}</style><path id="Tracé_88" class="st0" d="M10.87 1.56A1.22 1.22 0 0 0 9.68.59c-.13 0-.24.11-.24.24s.11.24.24.24c.4 0 .73.33.73.73s-.33.73-.73.73c-.13 0-.24.11-.24.24s.11.24.24.24c.58 0 1.07-.41 1.19-.97h3.18v2.18H.94V2.05h4.12c.13 0 .24-.11.24-.24s-.11-.24-.24-.24h-.43c.1-.3.37-.5.68-.5.4 0 .73.33.73.73s-.33.73-.73.73c-.13 0-.24.11-.24.24s.11.24.24.24c.67 0 1.21-.54 1.21-1.21 0-.67-.54-1.21-1.21-1.21-.58 0-1.07.41-1.19.97H.47v12.85h14.07V1.56h-3.67zm3.17 12.37H.94V4.71h13.1v9.22z"/><path id="Tracé_89" class="st0" d="M6.77 1.07c.4 0 .73.33.73.73 0 .4-.33.73-.73.73-.13 0-.24.11-.24.24s.11.24.24.24c.67 0 1.21-.54 1.21-1.22 0-.67-.54-1.21-1.21-1.22-.13 0-.24.11-.24.24s.11.26.24.26z"/><path id="Tracé_90" class="st0" d="M8.23 1.07c.4 0 .73.33.73.73 0 .4-.33.73-.73.73-.13 0-.24.11-.24.24s.11.24.24.24c.67 0 1.21-.54 1.21-1.22 0-.67-.54-1.21-1.21-1.22-.13 0-.24.11-.24.24s.1.26.24.26z"/><ellipse id="Ellipse_1" class="st0" cx="5.8" cy="6.41" rx=".24" ry=".24"/><ellipse id="Ellipse_2" class="st0" cx="7.5" cy="6.41" rx=".24" ry=".24"/><ellipse id="Ellipse_3" class="st0" cx="9.2" cy="6.41" rx=".24" ry=".24"/><ellipse id="Ellipse_4" class="st0" cx="10.89" cy="6.41" rx=".24" ry=".24"/><ellipse id="Ellipse_5" class="st0" cx="12.59" cy="6.41" rx=".24" ry=".24"/><ellipse id="Ellipse_6" class="st0" cx="2.41" cy="8.35" rx=".24" ry=".24"/><ellipse id="Ellipse_7" class="st0" cx="4.1" cy="8.35" rx=".24" ry=".24"/><ellipse id="Ellipse_8" class="st0" cx="5.8" cy="8.35" rx=".24" ry=".24"/><ellipse id="Ellipse_9" class="st0" cx="7.5" cy="8.35" rx=".24" ry=".24"/><ellipse id="Ellipse_10" class="st0" cx="9.2" cy="8.35" rx=".24" ry=".24"/><ellipse id="Ellipse_11" class="st0" cx="10.89" cy="8.35" rx=".24" ry=".24"/><ellipse id="Ellipse_12" class="st0" cx="12.59" cy="8.35" rx=".24" ry=".24"/><ellipse id="Ellipse_13" class="st0" cx="2.41" cy="10.05" rx=".24" ry=".24"/><ellipse id="Ellipse_14" class="st0" cx="4.1" cy="10.05" rx=".24" ry=".24"/><ellipse id="Ellipse_15" class="st0" cx="5.8" cy="10.05" rx=".24" ry=".24"/><ellipse id="Ellipse_16" class="st0" cx="7.5" cy="10.05" rx=".24" ry=".24"/><ellipse id="Ellipse_17" class="st0" cx="9.2" cy="10.05" rx=".24" ry=".24"/><ellipse id="Ellipse_18" class="st0" cx="10.89" cy="10.05" rx=".24" ry=".24"/><ellipse id="Ellipse_19" class="st0" cx="12.59" cy="10.05" rx=".24" ry=".24"/><ellipse id="Ellipse_20" class="st0" cx="2.41" cy="11.98" rx=".24" ry=".24"/><ellipse id="Ellipse_21" class="st0" cx="4.1" cy="11.98" rx=".24" ry=".24"/><ellipse id="Ellipse_22" class="st0" cx="5.8" cy="11.98" rx=".24" ry=".24"/><ellipse id="Ellipse_23" class="st0" cx="7.5" cy="11.98" rx=".24" ry=".24"/><ellipse id="Ellipse_24" class="st0" cx="9.2" cy="11.98" rx=".24" ry=".24"/></svg>