<svg id="Capa_1" data-name="Capa 1" xmlns="http://www.w3.org/2000/svg" viewBox="0 0 450.39 450.39"><defs><style>.cls-1{fill:#1e605f;}</style></defs><path class="cls-1" d="M143.67,350.32a47,47,0,1,0,47,47A47,47,0,0,0,143.67,350.32Zm0,73.14a26.12,26.12,0,1,1,26.12-26.12A26.12,26.12,0,0,1,143.67,423.46Z"/><path class="cls-1" d="M342.2,350.32a47,47,0,1,0,47,47A47,47,0,0,0,342.2,350.32Zm0,73.14a26.12,26.12,0,1,1,26.13-26.12A26.12,26.12,0,0,1,342.2,423.46Z"/><path class="cls-1" d="M448.26,76a13,13,0,0,0-8.36-4.18L99.79,67.15,90.38,38.42A48,48,0,0,0,45.45,6h-35a10.45,10.45,0,0,0,0,20.9h35A27.16,27.16,0,0,1,70.53,45.21l66.35,200.1-5.22,12a50.14,50.14,0,0,0,4.7,45.45,48.59,48.59,0,0,0,39.18,21.94H378.78a10.45,10.45,0,1,0,0-20.9H175.54a26.62,26.62,0,0,1-21.94-12.54A28.71,28.71,0,0,1,151,266.21l4.18-9.41,220-23a57.46,57.46,0,0,0,49.63-43.88l25.08-105A8.88,8.88,0,0,0,448.26,76ZM404.38,185.23a35.55,35.55,0,0,1-31.87,27.69L155.17,235.38,106.58,88.05l320.26,4.71Z"/></svg>