<svg id="Calque_1" xmlns="http://www.w3.org/2000/svg" viewBox="0 0 515 444.87"><style>.st0{fill:#1e605f}</style><g transform="translate(0 260.59)" id="Groupe_147"><g id="Groupe_146" transform="translate(0 -260.59)"><g id="Groupe_144" transform="translate(0 123.61)"><path id="Tracé_106" class="st0" d="M123.62 22.1c1.81.49 3.6 1.07 5.43 1.44 3.6.74 7.14 1.76 10.59 3.06 1.93.72 4.1.76 6.09 1.32 1.6.45 3.06 1.42 4.66 1.8 3.35.79 5.38 3.55 8.16 5.19.99.82 1.76 1.89 2.22 3.09.93 1.79 1.61 3.72 2.52 5.52 1.48 2.95 3.03 5.86 4.63 8.75 1.46 2.49 2.56 5.18 3.28 7.98.88 3.76 2.23 7.41 3.23 11.15.56 2.12.75 4.33 1.22 6.48a33.86 33.86 0 0 1-1.21 19.04c-.41 1.16-.62 2.4-.98 3.58a22.74 22.74 0 0 1-7.31 10.74c-.74.64-1.46 1.3-2.18 1.96-3.04 2.78-6.86 4.26-10.45 6.07a21.733 21.733 0 0 1-8.96 1.78c-3.16.12-6.35-.07-9.49.21-2.29.09-4.53.64-6.6 1.61a7.711 7.711 0 0 0-3.75 6.34c-.44 5.24-.23 10.52.64 15.7 1.05 5.95 2.19 11.89 2.91 17.88.64 5.32-1.2 10.23-3.61 14.88-1.5 2.9-3.16 5.72-4.81 8.53-.42.72-1.21 1.23-1.64 1.95a274.79 274.79 0 0 0-5.17 8.98c-.39.56-.48 1.28-.22 1.91.43.32 1.31.05 1.91-.13 2.57-.8 5.09-1.73 7.66-2.53 3.18-.9 6.55-.97 9.77-.2 2.31.46 4.68.61 6.97 1.14 2.06.48 4.08 1.13 6.04 1.94 1.94.77 3.8 1.72 5.55 2.84 1.57 1.1 3.03 2.35 4.36 3.75 1.68 1.64 3.26 3.38 4.72 5.21 1.19 1.52 2.19 3.17 2.99 4.93.98 2.2 1.31 4.73 2.51 6.76 1.33 2.11 3.21 3.81 5.44 4.93 4.42 2.23 9.05 4 13.83 5.3 6.16 1.83 12.2 4.08 18.4 5.76 6.83 1.85 13.78 3.24 20.67 4.87 1.64.39 3.23.97 4.85 1.4 1.63.43 3.28.8 4.93 1.21 2.73.68 5.48 1.3 8.18 2.08 6.32 1.82 12.62 3.72 18.93 5.57 3.52 1.04 7.01 2.21 10.58 3.04 2.26.52 4.58.76 6.91.72 7.73-.17 15.46-.69 23.19-.78 5.97-.11 11.95.07 17.91.56 8.05.7 16.04 2.01 23.89 3.92 5.15 1.27 10.13 2.99 15.13 4.69 3.68 1.25 7.37 2.44 11.02 3.78 2.3.85 4.48 2.01 6.77 2.87 4.66 1.78 9.53 2.94 14.49 3.45 2.96.28 5.93.42 8.9.7 6.25.67 12.56-.61 18.05-3.68 3.6-2.01 7.46-3.55 10.98-5.67 2.06-1.07 4.27-1.82 6.55-2.22 2.41-.46 4.86-.64 7.32-.56.89-.02 8.42 2.93 11.25 4.15 2.39 1.03 4.65 2.33 6.99 3.47 1.4.68 9.36 4.29 12.02 5.12 2.19.78 4.27 1.84 6.19 3.13 1.64 1 2.97 1.29 5.24 2.37 2.98 1.17 12.39 6.49 15.33 7.89a6.22 6.22 0 0 1 2.34 2.78c.74 1.45 1.32 2.98 1.73 4.55.35 1.26.54 2.57.56 3.88a2.652 2.652 0 0 1-1.69 2.35c-2.59 1.46-5.07 3.13-7.63 4.65-2.9 1.87-6.15 3.12-9.55 3.69-3.37.35-6.75.5-10.14.47-3.58.06-7.16.12-10.73-.11-4.2-.26-8.39-.77-12.57-1.27-2.78-.33-5.56-.76-8.31-1.29-1.94-.38-3.86-.88-5.75-1.48a68.327 68.327 0 0 0-11.59-2.39c-2.74-.35-5.44-.98-8.15-1.53-2.94-.61-5.85-1.38-8.81-1.89-2.56-.43-5.15-.71-7.75-.84-2.08-.1-4.17.17-6.25.18-3.41.03-6.83-.13-10.24 0-3.21.13-18.14.12-21.94.62-5.67.84-11.41 1.09-17.12.73-2.51-.19-5.08.47-7.63.67-2.8.21-5.6.29-8.4.49-4.18.3-8.34.69-12.52.95-1.38.09-2.78-.13-4.16-.13-2.82.02-5.64.14-8.46.13-2.61-.01-5.23-.22-7.84-.21-1.57 0-3.17.53-4.7.35-4.11-.51-8.19-1.32-12.29-1.91-1.88-.26-3.78-.41-5.68-.45-2.72-.09-5.45-.14-8.17-.05-2.95.09-5.89.45-8.83.53-2.45.06-4.9-.18-7.35-.2-2.77-.02-5.54.01-8.31.13-2.8.12-5.6.35-8.39.57-1.05.08-2.1.27-3.15.39-2.18.24-4.36.43-6.54.72-3.37.44-6.73.95-10.09 1.41-3.39.47-6.79.97-10.18 1.38-2.59.31-5.19.52-7.78.74-2.68.22-5.36.54-8.05.55-2.41.02-4.83-.46-7.25-.45-2.72.02-5.45.35-8.17.53-.26.01-.52-.01-.77-.05-4.59-.63-9.18-.14-13.78-.14-2.66 0-5.32-.39-7.98-.56-2.48-.63-4.91-1.45-7.27-2.46-3.04-.88-6.04-1.9-8.98-3.08-3.06-1.25-6.03-2.7-8.9-4.33-4.37-2.53-9.2-4.29-13.07-7.68-2.11-1.85-4.66-3.16-6.47-5.38-.3-.33-.74-.5-1.19-.44-.4.28-.68.71-.77 1.19-.57 2.91-1.17 5.83-1.56 8.77-.37 2.78-.5 5.6-.73 8.4-.2 2.41-.36 4.81-.6 7.22-.11 1.12-2.35 2.98-3.75 3.3-2.58.59-5.15 1.27-7.74 1.81-.95.15-1.92.2-2.89.14-3.64-.05-7.28-.13-10.92-.2-.55-.01-1.11-.06-1.66-.12-1.36-.1-2.71.2-3.89.88-.33.12-.67.17-1.02.16-2.9.26-5.8.42-8.68.78-3.6.45-6.99 1.94-10.77 1.78-3.07-.14-15.69.41-18.55.38-2.84-.03-5.66-.7-8.5-.92-3.49-.29-6.96-.81-10.38-1.56-3.61-.16-3 .11-5.19-.27-3.85-.34-4.26-4.29-4.33-5.2.41-3.04 6.49-9.65 12.01-12.6 2.7-1.5 5.65-1.92 8.62-2.45 3.71-.66 7.37-1.59 11.05-2.4 3.12-.68 6.24-1.4 9.38-2 1.74-.3 3.16-1.56 3.67-3.25 1.43-3.35.87-6.77.74-10.14-.12-4.19-.56-8.36-1.29-12.48-.81-4.26-2.22-8.4-3.37-12.59-.94-3.42-1.98-6.81-2.74-10.27-.46-2.09-.41-4.28-.74-6.4a2.95 2.95 0 0 0-1.03-1.86c-2.91-2.04-6.05-3.79-8.84-5.98-2.62-2.13-5.1-4.43-7.41-6.88a43.545 43.545 0 0 1-4.81-5.77c-1.89-2.75-4.47-5.09-5.3-8.5-.36-1.49-.65-2.99-1.05-4.46-.45-1.67-1.68-12.16-4.19-18.05-1.19-2.94-2.87-5.6-4.08-8.5-.23-.57-.42-1.16-.54-1.76-.23-1.55-.55-3.09-.98-4.6-1.02-2.85-.31-5.35.7-8.07 1.51-4.07 4.64-6.87 7.21-10.1 1.87-2.35 4.31-4.24 6.34-6.47 2.16-2.27 4.15-4.7 5.97-7.26 2.18-3.22 4.82-6.13 6.26-9.88 1.56-4.06 3.54-7.96 5.44-11.88.97-1.94 2.04-3.83 3.22-5.66 1.57-2.78 3.37-5.44 5.37-7.93a36.79 36.79 0 0 1 9.91-8.03c2.28-1.22 4.72-2.16 7.11-3.19a1.85 1.85 0 0 0 1.23-1.51c.28-.99.88-1.86 1.72-2.46 3-1.96 5.65-4.41 7.84-7.24.99-1.33 2.41-2.33 3.4-3.65 1.83-2.45 3.56-4.99 5.21-7.57 3-4.68 3.35-10.06 3.92-15.39.51-4.71 1.29-9.39 1.98-14.07.3-2.02.59-4.05 1.01-6.04.21-.99 2.11-6.3 4.9-7.76 2.02-.98 4.09-1.83 6.22-2.54 3.92-1.68 8.1-2.03 12.08-3.25 3.12-.96 6.33-.34 9.51.05 1.06.08 2.12.11 3.18.07l3.39.4m37.59 203.49c-.81.53-1.84 1.09-2.75 1.81a921.88 921.88 0 0 0-11.42 9.25c-1.43 1.18-2.7 2.56-4.16 3.71-1.8 1.42-3.82 2.56-5.55 4.06-1.94 1.69-3.63 3.68-5.48 5.48-3.06 2.96-6.21 5.82-9.25 8.81-1.4 1.39-2.63 2.97-3.92 4.49-1.13 1.33-2.2 2.71-3.33 4.04-1.32 1.55-2.78 2.99-3.99 4.61-1.93 2.6-3.66 5.34-5.55 7.96-1.3 1.81-1.27 2.58.5 3.88 1.15.65 2.23 1.42 3.22 2.28 3.02 3.33 6.89 5.42 10.69 7.57 3.45 1.95 7.12 3.51 10.69 5.25.86.42 1.69.93 2.57 1.28 2.23 1.01 4.54 1.84 6.9 2.5 2.85.63 2.93.52 6.25 1.25.88.2 3.44 1.21 3.77 1.31 1.68.58 3.41.96 5.17 1.13 3.99.31 8.01.33 12.02.44 2.62.06 5.33.48 7.84-.03 3.24-.65 6.35.12 9.52.02 3.83-.12 7.69.02 11.51-.26 3.82-.28 7.59-.97 11.39-1.43 2.28-.28 4.6-.33 6.86-.7 3.01-.48 5.96-1.35 8.98-1.71 2.79-.34 5.62-.24 8.44-.33.98-.03 1.96.02 2.93-.07 3.61-.34 7.21-.92 10.83-1.03 6.29-.21 12.59-.14 18.88-.18 3.75-.03 7.5-.25 11.22-.01 3.43.22 6.81 1.09 10.24 1.42 3.63.34 7.27.47 10.91.52 4.86.08 9.73.09 14.59-.03s9.71-.4 14.57-.68c6.14-.35 12.28-.79 18.42-1.15 3.43-.2 6.87-.29 10.3-.48 3.54-.2 7.07-.48 10.6-.7 1.53-.1 3.06-.22 4.59-.22 1.32 0 8.37-.48 10.09-.45 1.98.04 3.96-.25 5.94-.2 2.4.06 4.79.39 7.19.46 3.63.1 7.26.07 10.89.12 4.38.01 8.73.74 12.88 2.16 4.76 1.69 9.77 1.91 14.7 2.66 2.12.32 4.21.86 6.3 1.35 3.19.74 6.34 1.7 9.56 2.22 3.55.57 7.17.71 10.76 1.09 2.02.22 4.03.63 6.06.79 2.66.2 5.35.08 7.99.37 6.91.77 13.9-.41 20.17-3.41 1.56-.67 2.98-1.61 4.21-2.78 1.01-1.03 4.13-2.87 2.25-5.97-.72-1.27-1.54-2.47-2.46-3.61-1.31-1.4-2.79-2.65-4.39-3.71a47.12 47.12 0 0 0-4.94-2.3c-2.15-1.03-4.27-2.13-6.4-3.19-1.87-.94-3.73-1.87-5.62-2.78a38.64 38.64 0 0 0-5.82-2.65 72.122 72.122 0 0 1-12.54-5.59c-1.08-.55-8.14-3.66-10.66-4.52-2.77-.95-5.45-2.49-8.56-1.36-.66.24-1.34.4-2.01.59-1.8.51-3.64.94-5.41 1.53-1.22.42-2.35 1.09-3.54 1.62-2.77 1.24-5.62 2.32-8.29 3.75a33.02 33.02 0 0 1-10.19 3.63c-5.01.83-9.96-.05-14.92-.3-5.1-.19-10.16-1.09-15.01-2.67-1.89-.64-3.86-1.1-5.73-1.8-2.23-.83-4.38-1.91-6.62-2.75-1.38-.52-2.89-.68-4.27-1.21a59.5 59.5 0 0 0-5.75-2.46c-5.14-1.34-9.88-3.95-15.29-4.46-3.49-.33-6.91-1.36-10.39-1.84-4.66-.64-9.34-1.22-14.03-1.53-5.23-.35-10.47-.39-15.71-.56-1.79-.06-3.59-.26-5.37-.14-4.38.29-8.74.88-13.13 1.05-2.66.11-5.37-.63-8.02-.42-3.54.28-6.66-.85-9.88-1.91-3.59-1.18-7.21-2.24-10.82-3.36-2.68-.69-5.32-1.55-7.9-2.56a51.19 51.19 0 0 0-10.13-2.98c-2.69-.59-5.38-1.24-8.07-1.89-2.78-.68-5.55-1.44-8.34-2.08-4.14-.95-8.32-1.7-12.43-2.77-3.91-1.02-7.73-2.38-11.61-3.51-3.11-.9-6.26-1.64-9.37-2.5-3-.83-6.03-1.64-8.97-2.65-3.41-1.17-7.18-1.43-9.99-4.18-1.6-1.62-3.51-2.9-5.41-4.4M64.34 91.13c.48 1.13 2.15 1.29 2.22 1.34 1.15.37 4.97 1.69 6.76 3.83.8.96 1.99 1.62 2.65 2.65 1.02 1.6 1.64 3.45 2.61 5.09 1.56 2.75 2.42 5.84 2.49 9.01.17 4.06-.53 8.15-.87 12.23-.06.73-.24 1.44-.31 2.17-.13 1.52-.13 3.06-.36 4.56-.31 2.06-.93 4.08-1.17 6.14-.91 7.51-1.79 15.02-2.55 22.55-.4 3.96-.52 7.95-.79 11.92-.35 5.26-.86 10.51-1.03 15.77-.12 3.89.11 7.8.37 11.68.14 2.06.85 4.08 1 6.13.27 3.73.37 7.47.45 11.2.1 4.67.11 9.35.17 14.02.04 2.99.18 5.99.13 8.98-.06 3.51-.35 7.03-.4 10.54 0 2.04.14 4.08.41 6.11.04.85.37 1.66.93 2.3 2.01 1.69 3.35 3.98 5.58 5.56 2.94 2.09 5.3 4.98 8.08 7.33 3 2.53 6.17 4.86 9.32 7.19 1.29.95 1.8.62 2.66-.72 1.23-1.94 2.63-3.79 4.01-5.64 1.57-2.11 3.3-4.1 4.76-6.28 1.53-1.84 3.16-3.61 4.87-5.29 1.93-2.14 3.76-4.38 5.71-6.51 1.88-2.06 3.81-4.09 5.82-6.04 1.38-1.34 2.93-2.51 4.38-3.79.45-.39.78-.93 1.24-1.31 2.08-1.73 4.23-3.38 6.28-5.15 2.11-1.81 4.1-3.75 6.17-5.6.56-.51 1.26-.86 1.82-1.37 2.47-2.2 4.9-4.46 7.37-6.65 1.73-1.53 4.25-2.28 4.7-4.63-.23-1.51-.68-2.97-1.34-4.34-1.16-2-2.45-3.92-3.87-5.75a33.406 33.406 0 0 0-3.84-3.96c-2-1.91-4.4-3.34-7.04-4.18-2.09-.63-4.13-1.47-6.25-1.98-1.95-.47-4.06-.37-5.97-.95-2.48-.65-5.09-.57-7.53.23a82.892 82.892 0 0 0-12.74 5.21 44.217 44.217 0 0 0-5.37 3.76c-1.91 1.3-3.41 3.25-6.02 3.47-1.42.27-2.81.64-4.17 1.12-.34.03-.67-.1-.9-.34-.91-1.04-6.01-6.94-6.69-9.21a60.21 60.21 0 0 1-1.57-9.52c-.07-1.12-.07-2.24-.02-3.36-.07-2.49-.22-4.98-.23-7.47-.01-1.95.17-3.91.19-5.86.02-2.24-.39-4.55.03-6.7.75-3.84 1.94-7.6 3.01-11.37 1.44-5.11 2.95-10.21 4.42-15.32 1.01-3.63 1.3-7.42.86-11.16-.13-1.06-.18-2.13-.15-3.2.09-4.05-.5-8.08-1.73-11.93-1.1-3.04-1.81-6.21-2.13-9.43-.04-.97.13-1.69 1.19-1.76.8-.2 1.61.29 1.81 1.09.03.14.05.28.04.42.2 1.81.61 3.58 1.24 5.29 1.54 3.83 2.52 7.86 2.91 11.97.38 4.05.55 8.11.5 12.17-.08 2.98-.45 5.94-1.1 8.85-.49 2.27-1.96 4.37-2.25 6.64-.54 3.44-1.52 6.8-2.93 9.99-1.94 4.81-2.3 9.78-2.3 14.84 0 1.43.06 2.87.02 4.3-.05 1.43-.34 2.83-.28 4.23.1 2.22.53 4.42.61 6.64.16 4.45.9 8.71 3.39 12.52.75 1.14 1.56 2.65 2.92 2.55 1.83-.18 3.61-.72 5.22-1.61 1.6-1.04 3.12-2.19 4.55-3.46.72-.54 1.6-.79 1.15-2.1-.15-.45.62-1.24 1.01-1.85.27-.42.77-.73.93-1.17a50.31 50.31 0 0 1 5.64-10.84c.64-.83 1.32-1.62 2.04-2.37a21.01 21.01 0 0 0 2.67-3.48c1.08-2.11 1.81-4.4 2.79-6.57 1.8-3.67 2.63-7.74 2.4-11.82-.28-3.34-.94-6.65-1.51-9.96-.5-2.93-1.21-5.82-1.63-8.75-.38-2.65-.59-5.34-.7-8.02-.09-2.25.02-4.51.12-6.76.01-1.01.16-2.01.46-2.98.44-1.2 1-2.35 1.67-3.43.54-.9 3.04-3.53 5.33-4.05 2.73-.29 5.45-.65 8.18-.82 2.01-.13 4.04.07 6.06-.02 1.48-.08 2.95-.26 4.41-.55 1.75-.21 3.46-.64 5.1-1.26 2.11-.97 3.93-2.56 6.03-3.57a24.12 24.12 0 0 0 8.64-7.21 12.02 12.02 0 0 0 2.61-5.42c.1-1.01.39-2 .86-2.9 1.98-3.2 2.1-6.85 2.36-10.36.17-3.47 0-6.95-.5-10.39-.42-2.98-1.05-5.92-1.87-8.81-.51-1.9-1.38-3.71-2.04-5.57-.85-2.43-1.56-4.93-2.5-7.32-.57-1.43-1.53-2.71-2.23-4.1-.91-1.78-1.68-3.64-2.61-5.41-.95-1.38-1.79-2.84-2.51-4.35a9.728 9.728 0 0 0-4.52-5.31c-2.48-1.5-5.23-2.51-8.09-2.96-3.12-.5-6.1-1.88-9.13-2.9-2.02-.84-4.1-1.54-6.22-2.1-4.84-.89-9.76-1.32-14.6-2.24-5.27-1-10.12.25-14.97 1.99-2.34.84-4.68 1.69-7.06 2.38-2.75.7-5.01 2.66-6.09 5.28-.46 1.3-.81 2.64-1.05 4-.63 2.7-1.44 5.37-1.81 8.1-.61 4.47-.86 8.98-1.38 13.46-.32 2.75-.33 5.6-1.82 8.11-.6 1.02-1.12 2.09-1.73 3.11a44.706 44.706 0 0 1-3.94 6.4c-3.79 4.47-7.88 8.73-11.92 13.14m13.34 23.2h.09c-.31-1.93-.78-3.82-1.4-5.67-.55-1.48-1.32-2.89-1.77-4.4-.65-1.72-1.65-3.28-2.95-4.58a11.95 11.95 0 0 0-7.06-3.64c-1.19-.4-2.46-.48-3.69-.23a76.744 76.744 0 0 0-8.54 4.07 31.61 31.61 0 0 0-5.12 3.44 54.84 54.84 0 0 0-4.23 4.26 22.328 22.328 0 0 0-5.81 11.46c-.98 4.07-1.5 8.24-1.55 12.42.11 4.01.01 8.03.3 12.03.31 4.32 1.12 8.61 1.4 12.93.39 5.99.46 12 .74 18 .17 3.64.4 7.28.74 10.91.5 5.51 1.16 11.01 1.67 16.53.31 3.36.46 6.73.73 10.09.23 2.97.67 5.93.78 8.9.15 4 .24 8.02.02 12.01-.1 1.79.99 1.93 1.99 2.25 3.47 1.05 6.61 2.97 9.13 5.57 1.67 1.62 3.44 3.14 5.3 4.54 1.87 1.51 3.81 2.95 5.74 4.4 2.42 1.82 4.85 3.63 7.32 5.37.19.13 1.07-.23 1.08-.41.08-.87-.09-1.76-.07-2.65.05-2.99.15-5.99.23-8.98.08-2.85.18-5.7.22-8.54.02-1.33-.14-2.66-.12-3.99.04-2.63.14-5.25.23-7.88.14-1.52.2-3.05.17-4.57-.23-2.84-.7-5.65-1-8.48-.25-2.44-.25-4.92-.63-7.33-.9-5.7-1.09-11.48-.57-17.22.27-2.96.55-5.92.73-8.9.18-3.03.21-6.07.36-9.1.07-1.34.37-2.68.38-4.02.01-1.21-.45-2.44-.32-3.63.27-2.56.81-5.09 1.16-7.65.12-.85 1.72-11.55 2.48-16.05.1-.74.15-1.48.16-2.22-.1-1.82.01-3.64.31-5.44.75-4.49 1.22-9.04 1.37-13.6M42.49 238.58c.63 3.63 1.18 7.05 1.82 10.46.15.79.65 1.51.88 2.29.78 2.68 1.55 5.36 2.26 8.06 1.02 3.34 1.86 6.73 2.5 10.16.73 4.96 1.18 9.97 1.33 14.98-.11 2.98-.46 5.95-1.05 8.87-.04.31-.21.59-.46.78-1.3.92-2.71 1.67-4.2 2.22-2.99.79-6.07 1.18-9.11 1.8-3.3.67-6.58 1.4-9.87 2.12-2.38.52-4.73 1.13-7.13 1.55-3.66.62-6.99 2.5-9.42 5.31a28.086 28.086 0 0 0-3.03 4.31c-.57.95-.23 1.69 1.03 1.76.95.06 6.91 1.31 8.98 1.69 1.09.2 2.26-.01 3.38.1 3.13.32 6.24.8 9.37 1.06 2.8.23 5.62.21 8.43.39 3.1.4 6.25.28 9.32-.35 1.19-.3 2.41-.49 3.64-.56 2.71-.19 5.42-.07 7.98-1.4a9.9 9.9 0 0 1 4.11-.92c2.61.07 5.1-1.09 6.72-3.14 2.73-3.25 4.3-7.31 4.47-11.55.12-3.08.47-6.16.72-9.23.09-1.16.23-2.31.23-3.47-.01-1.76-.16-3.51-.19-5.27.09-1.79.08-3.58-.03-5.37-.57-4.19-1.81-8.28-1.66-12.59a4.11 4.11 0 0 0-1.49-2.83c-2.05-1.66-4.38-2.96-6.47-4.56-2.99-2.31-5.84-4.81-8.8-7.16-3.04-2.41-6.16-4.72-9.21-7.12a9.441 9.441 0 0 0-5.05-2.39m-5.25-7.29l.54-.34c.02-2.08.06-4.16.05-6.24-.02-3.34-.03-6.68-.13-10.02-.09-2.91-.33-5.81-.47-8.71-.08-1.72.1-3.47-.13-5.17-.42-3.15-1.19-6.24-1.55-9.39-.45-3.9-.66-7.84-.9-11.76-.25-4.13-.51-8.27-.57-12.41.01-2.66.15-5.32.43-7.96.34-3.84-.88-7.45-1.46-11.15-.23-1.49-.21-3.03-.32-4.54-.11-1.58-.35-9.9-.57-12.48.03-1.01.12-2.03.29-3.03.01-.21.22-.51-.42-.66-.38-.15-.46.21-.55.39-1.1 2.02-2.12 4.08-3.25 6.09-1.46 2.59-2.94 5.17-4.53 7.69-1.34 2.11-2.85 4.11-4.28 6.16-.29.53-.64 1.02-1.02 1.48-1.43 1.4-3.05 2.63-4.36 4.13-1.73 1.97-3.21 4.16-4.86 6.2-.68.85-1.5 1.59-2.24 2.4-1.97 2.14-3.29 4.56-2.9 7.57.21 1.6.54 3.18.99 4.73.48 1.66 6.26 13.49 6.79 15.73.83 3.51 1.08 7.16 1.64 10.75.7 4.53 1.69 8.95 4.95 12.49.78.87 1.47 1.81 2.07 2.81 2.19 3.65 5.01 6.88 8.33 9.53.91.72 1.74 1.54 2.7 2.17 1.86 1.24 3.81 2.37 5.73 3.54m36.33 81c.78.24 1.58.41 2.4.52 2.66.1 5.35-.1 7.98.23 3.11.3 6.25-.23 9.09-1.53 3.04-1.23 3.75-2.33 3.51-5.58-.1-1.58-.08-3.16.05-4.73.09-1.12.53-2.21.62-3.33.39-4.6.76-9.2 2.45-13.58.14-.5.02-1.04-.32-1.44-1.33-1.11-2.76-2.1-4.25-2.97a42.085 42.085 0 0 1-10.61-8.39c-2.04-2.19-4.15-4.3-6.26-6.43-.21-.21-.6-.25-.91-.37-.15.3-.25.62-.28.96.35 2.94.82 5.86 1.1 8.81.33 2.86.48 5.73.47 8.6-.15 5.61-.55 11.21-.84 16.82-.24 4.39-1.03 8.58-4.2 12.41"/></g><g id="Groupe_145" transform="translate(128.784)"><path id="Tracé_107" class="st0" d="M149.81 286.6c-3.16 5.47-5.97 10.75-9.19 15.76-2.62 4.07-3.59 8.76-5.59 13.04-.68 1.93-1.55 3.78-2.57 5.55-1.37 1.75-2.97 3.3-4.76 4.62-2.8 2.2-6.24 2.97-9.62 3.78-.66.03-1.32-.01-1.97-.12-.98-.08-1.97 0-2.93.21-2.51.98-5.35.49-7.37-1.29a11.12 11.12 0 0 1-2.51-4.32c-.86-2.25-1.44-4.61-2.08-6.94-.67-2.45-1.12-4.97-1.97-7.35-.71-1.83-1.62-3.58-2.72-5.2-.5-.49-1.19-.74-1.88-.68-1.85.14-3.69.4-5.51.79-3.41.74-6.3-1.3-7.29-4.74-.98-3.07-2.13-6.08-3.45-9.02-.75-1.83-1.84-3.53-2.48-5.38-.48-1.3-.64-2.69-.45-4.06.8-4.39 1.81-8.74 2.83-13.08.34-1.79.89-3.54 1.63-5.2 1.02-2.03 2.48-3.83 3.68-5.77 2.53-3.75 3.97-8.13 4.17-12.65-.09-.96-.28-1.91-.58-2.82-.23-1.03-.39-2.08-.72-3.08-1.5-4.61-1.85-9.18.43-13.66.19-.37.48-.68.83-.9 2.13-1.3 3.23-3.75 5.98-4.52 2.41-.68 4.46-2.55 6.77-3.69 3.68-1.84 7.72-2.88 11.84-3.04 2.81-.1 5.64.23 8.43-.04 4.34-.42 8.91-.54 12.08-4.27 2.58-3.03 4.9-6.29 7.62-9.19 2.08-2.02 4.29-3.91 6.62-5.64a19.02 19.02 0 0 1 8.07-3.47c4.7-1.08 9.41-2.13 14.13-3.11 1.24-.37 2.56-.44 3.83-.21 1.61.6 3.13 1.4 4.53 2.38 4.67 2.81 8.19 7.19 9.92 12.36 1.32 3.79 1.84 7.59.07 11.46-1.05 2.3-1.76 4.76-2.75 7.1-.41.93-.99 1.78-1.7 2.51-2.74 2.9-5.65 5.66-8.31 8.64-1.85 2.08-3.37 4.46-5.08 6.67-.7.91-.96 2.08-.71 3.2.38 2.53.2 5.15 2.55 7.05.83.68 1.09 2.08 1.58 3.18.32.7.48 1.49.85 2.16 2.27 4.16 4.58 8.3 6.88 12.45 2 3.61 3.86 7.31 6.05 10.8 1.87 3.31 4.18 6.35 6.87 9.03 2.34 2.12 4.5 4.44 6.72 6.69.84.96 2.2 1.25 3.37.74 1.33-.49 2.27 0 2.23 1.42-.05 2 1.11 2.83 2.59 3.6 3.75 1.95 7.52 3.82 11.18 5.92 2.02 1.27 3.96 2.64 5.83 4.11 2.93 2.12 5.85 4.21 8.74 6.38 2.4 1.8 4.61 3.87 7.12 5.49 4.03 2.61 8.21 4.99 12.39 7.36 3.86 2.22 7.51 4.79 10.91 7.66 2.85 2.38 5.89 4.52 8.82 6.81 2.15 1.69 4.21 3.49 6.38 5.15 2.48 1.9 4.99 3.77 7.57 5.53 2.21 1.5 4.55 2.81 6.81 4.22 2.36 1.47 4.75 2.9 7.04 4.46 4.68 3.17 9.27 6.48 13.98 9.61 2.18 1.45 4.52 2.66 6.82 3.91 3.17 1.72 4.28 2.21 7.41 4 4.22 2.41 1.34 6.03 5.52 8.52.9.54 7.54 4.47 7.68 4.36-.64-1.61-1.9-4.78-2.64-6.34-1.67-3.56-2.49-4.61-4.01-8.23-1.73-4.09 2.22-8.65.22-14.31-.47-1.21-1.91-4.38-2.42-5.58-.72-1.71-1.28-3.5-2.06-5.17-3.89-8.28-7.73-16.59-11.8-24.78a82.71 82.71 0 0 0-5.72-9.29 175.07 175.07 0 0 0-7.22-9.96c-2.22-2.84-4.68-5.51-7.07-8.22-2.49-2.84-5.43-5.38-7.44-8.52-2.26-3.55-5.76-5.81-8.23-9.09-.68-.9-2.19-1.14-3.09-1.94-2.13-1.9-4.18-3.89-6.15-5.96a2.902 2.902 0 0 0-2.74-.88c-3.45.27-6.92.89-10.39-.05-1.08-.29-2.28-.09-3.39-.32-4.23-.86-8.3-2.13-11.49-5.24a7.055 7.055 0 0 1-2.38-6.72c.36-2.09.54-4.2.54-6.32.03-2.32 1.34-3.94 2.58-5.66.62-.85 1.19-1.74 1.71-2.66.47-.83.25-1.47-.8-1.47-2.15 0-3.26-1.33-4.55-2.87-3.33-3.95-6.64-7.93-10.89-11.05-2.68-1.98-4.86-4.63-7.29-6.94-3.67-3.5-7.37-6.95-11.03-10.45-3.63-3.46-7.23-6.95-10.85-10.42-3.32-3.19-6.37-6.77-10.09-9.41-4.74-3.37-8.38-7.83-12.76-11.54-5.21-4.43-10.64-8.57-16.08-12.67-4.17-3.14-8.82-5.62-13.25-8.42-.92-.58-1.76-1.29-2.68-1.86-4.46-2.8-8.83-5.74-13.42-8.3-4.59-2.55-8.27-6.08-11.96-9.67-1.52-1.48-3.22-2.77-4.78-4.21a79.003 79.003 0 0 1-6.76-7.52c-.94-1.6-1.9-3.18-2.83-4.79-.65-1.12-1.16-2.33-1.88-3.39-3.39-4.97-7.9-8.91-12.07-13.18-2.77-2.83-5.47-5.74-8.18-8.62-1.43-1.52-3.35-1.78-5.23-2.06-2.78-.42-5.56-.9-8.35-1.08-3.46-.21-6.93-.13-10.4-.18-3.25-.05-6.51-.28-9.75-.14-6.06.26-11.66-1.85-17.46-3-3.68-.73-6.08-3.17-8.78-5.3-.68-.53-1.65-.82-2.12-1.48-2.11-2.95-3.43-6.18-2.42-9.9.74-2.76.08-5.41-.42-8.09-.19-1.01-.29-2.03-.45-3.04-.48-2.29-.45-4.65.08-6.93.66-2.27 1.6-4.45 4.19-5.27.54-.2 1.05-.47 1.52-.8 2.74-1.8 5.94-2.39 8.95-3.46 3.47-1.24 6.83-2.81 10.26-4.19 3.47-1.39 6.96-2.74 10.46-4.07a9.503 9.503 0 0 0 3.94-3.13c2.83-3.42 4.85-7.61 8.49-10.24 5.07-3.67 10.4-6.88 17.13-6.67 3.26-.01 6.51-.33 9.71-.95 2.62-.41 4.33-2.25 5.76-4.41 1.09-1.66 2.35-3.22 3.54-4.82.18-.19.36-.38.52-.59 2.24-3.92 6.4-5.4 9.89-7.73 1.19-.79 2.59-1.26 3.85-1.95 1.16-.55 2.54-.42 3.57.35 3.94 2.28 7.52 5.12 10.64 8.43 2.14 2.21 4.97 3.73 7.17 5.89 1.77 1.81 3.31 3.84 4.56 6.04.99 1.77 1.72 3.67 2.19 5.64.51 2.08.84 4.21.99 6.35.18 1.95.2 3.9.05 5.85-.24 2.79-.69 5.55-2.78 7.73-.63.75-1.2 1.55-1.71 2.4-1.17 1.7-2.22 3.51-3.54 5.09-2.96 3.58-4.82 7.84-7.39 11.65a69.756 69.756 0 0 1-6.6 7.66c-1.15 1.26-2.78 2.17-3.64 3.57a5.577 5.577 0 0 0-.42 3.95c1.1 4.64 2.49 9.22 4.14 13.69 1.49 3.76 3.89 7.14 5.64 10.81 2.34 4.9 6.28 8.5 9.89 12.3 3.57 3.49 6.51 7.57 8.7 12.06.88 1.98 1.21 4.15.98 6.3-.26 2.69-.52 5.41-.52 8.11 0 2.36.59 4.74.46 7.09-.08 1.45-.15 3.21-1.61 4.25-1.05.74-.4 1.17.23 1.62 3.45 2.42 6.86 4.9 10.37 7.23 2.11 1.4 4.42 2.47 6.54 3.84 3.78 2.31 7.29 5.03 10.48 8.11 3.33 3.36 6.84 6.53 10.33 9.71 4.17 3.81 8.44 7.5 12.58 11.33 4 3.69 7.89 7.51 11.86 11.24 2.82 2.65 5.74 5.18 8.53 7.86 3.7 3.54 7.29 7.19 10.97 10.75 1.19 1.15 2.51 2.15 3.75 3.26 3.11 2.81 6.17 5.66 9.32 8.43 1.05.81 2.15 1.54 3.3 2.21.59.39 1.15.8 1.92 1.32.86-1.77.91-3.82.14-5.63-1.26-2.56-2.86-4.96-4.15-7.51-1.47-2.93-2.78-5.93-4.1-8.93-.85-1.93-.13-3.64.93-5.29.87-1.36 1.66-2.78 2.48-4.17.07-.14.15-.28.24-.4 3.23-3.24-6.59-15.69-9.06-21.45-1.31-3.05-2.57-6.13-4-9.12-1.02-2.14-2.28-4.17-3.41-6.2-2.34.94-2.77.7-3.26-1.37-.43-1.83-2.09-2.58-3.31-3.71a26.745 26.745 0 0 1-4.09-4.08 42.583 42.583 0 0 1-5.87-12.04c-1.03-3.57-1.93-7.18-2.82-10.79-.2-1.02-.32-2.05-.37-3.09-.72-7.9-1.43-15.81-2.14-23.71-.08-.92-.32-1.84-.37-2.76-.09-.55.02-1.12.31-1.6 1.19-1.2.28-2.05-.55-2.5-2.31-1.4-4.77-2.53-7.33-3.38a49.72 49.72 0 0 0-9.01-1.16c-5.63-.22-11.26-.1-16.88.35-3.88.1-7.69-.96-10.96-3.06-1.57-.97-3.06-2.09-4.56-3.17-1.84-1.32-1.76-1.72-.09-3.55 2.67-2.95 4.98-6.21 6.88-9.7 1.36-2.25 2.36-4.71 2.96-7.27.63-2.38 1.12-4.8 1.46-7.24.12-2.44.65-4.84 1.56-7.11.45-.85 1.02-1.62 1.69-2.29 1.35-1.58 2.78-3.09 4.12-4.68 1.61-1.8 3.78-2.99 6.15-3.38 1.33-.12 2.65-.34 3.95-.66 2.34-.85 4.6-1.9 6.76-3.15 4.67-2.84 9.73-4.99 15.02-6.38 1.16-.3 2.3-.68 3.41-1.13 4.73-1.91 9.18-.72 13.6 1.11 1.25.52 2.61.75 3.82 1.34 2.36.95 4.59 2.17 6.65 3.66 2.54 2.19 5.28 4.16 8.17 5.86a34.19 34.19 0 0 0 9.03 3.53c3.59.86 7.22 1.58 10.78 2.53 3.31.89 6.52 2.22 9.86 2.96 2.53.67 4.87 1.93 6.83 3.67.99.79 2.04 1.91 1.11 3.62-.46.84-.28 2.01-.57 2.97-.88 2.9-1.48 5.97-2.88 8.61-2.14 4.04-5.13 7.24-9.89 8.68-6.7 1.82-13.02 4.8-18.69 8.8-2.84 1.91-5.41 4.2-7.62 6.81-.72.93-1.53 1.79-2.2 2.75-.19.42-.26.88-.2 1.34.16 5.65.28 11.29.53 16.93.12 2.61.6 5.19.73 7.8.25 5.27.47 10.53.48 15.8-.15 1.68-.51 3.34-1.06 4.94-.23.95-.56 1.88-.89 2.81-1.42 4.05-3.09 8.02-6.32 10.97-1.88 1.73-1.29 3.46-.61 5.27.43 1.16 1.2 2.19 1.74 3.32 2.03 4.23 3.92 8.53 6.08 12.68a77.57 77.57 0 0 0 5.05 8.21c1.8 2.61 3.81 5.06 5.83 7.51.45.54 1.12.85 1.83.85 3.73-.76 7.74-.7 11.02-2.99a23.37 23.37 0 0 0 4.37-3.94c3.25-3.81 6.47-7.65 9.44-11.68 1.41-2.11 3.19-3.95 5.26-5.42 2.13-1.5 4.69-2.26 7.29-2.17 4.76.19 9.53.08 14.3-.06 1.39-.22 2.76-.54 4.11-.94 3.31-.55 6.23-2.15 9.26-3.42 4.27-1.79 8.83-2.75 13.46-2.83 2.45-.01 4.9.15 7.33.48.8.15 1.51.6 1.99 1.25a44.75 44.75 0 0 1 6.15 13.19c.8 3.21 3.27 5.74 6.45 6.63 2.1.58 4.3.81 6.45 1.18 2.64.46 5.28.91 7.93 1.35 2.45.41 3.95 2.31 5.8 3.67 2.29 1.68 3.96 4.1 6.68 5.31a5.873 5.873 0 0 1 2.84 5.49c-.57 3.95-2.36 7.42-4.24 10.86-.8 1.47-1.46 3.01-2.33 4.43-1.55 2.53-3.23 4.99-4.83 7.49-1.82 2.84-3.79 5.6-5.36 8.56-2.3 4.34-4.4 8.8-6.4 13.29-.72 1.96-1.31 3.96-1.77 6-.05.32-.18.62-.39.86-.94.73-1.93 1.41-2.95 2.03-2.14 1.26-2.2 1.25-1.16 3.55 1.05 2.32 2.33 4.55 3.24 6.92.95 2.5 1.57 5.12 2.36 7.68.3.98.69 1.94 1.02 2.92.98 2.89 1.87 5.8 2.94 8.65.78 2.09 1.96 4.05 2.61 6.18 1.03 3.4 1.83 6.88 2.6 10.35.6 2.72-.59 5.31-.99 7.94-.17 2.11-.85 4.15-1.99 5.94a5.677 5.677 0 0 0-.98 5.75 85.43 85.43 0 0 1 1.85 9.38c.53 3.36.89 6.74 1.31 10.12.2 1.64.33 3.29.56 4.92.59 4.17 1.16 8.35 1.85 12.51.83 5 1.85 9.97 2.63 14.98.47 2.95.54 5.96.98 8.92.56 3.78 1.31 7.54 1.97 11.31.46 2.63.86 5.28 1.38 7.9.47 2.34 1.07 4.65 1.61 6.97.64 2.76 1.27 5.52 1.93 8.27 1.03 4.26 2.08 8.52 3.13 12.78.02.16.06.31.12.46 1.42 2.94 1.42 2.94-1.09 5.32-.96-1.26-1.91-2.5-2.85-3.75-.56-.75-1.11-1.5-1.63-2.28-.87-1.32-1.63-2.71-2.56-3.99-2.41-3.3-9.77-4.19-13.64-6.08-.31-.41-4.28-1.77-4.59-2.18-2.8-1.14-5.24-3.04-7.03-5.48-.4-.55-.87-1.05-1.23-1.62-3.98-6.48-1.86-16.81-5.89-23.25a9.339 9.339 0 0 0-2.52-1.84c-.67-.39-5.14-2.33-6.45-3.07-1.56-.88-3.26-1.54-4.75-2.53-3.37-2.25-1.32-6.2-4.69-8.46-1.65-1.11-3.48-1.95-5.21-2.95-2.76-1.6-5.5-3.24-8.26-4.85-3.21-1.87-6.44-3.75-9.65-5.63-.44-.26-.8-.63-1.22-.93-3.5-2.49-6.96-5.03-10.5-7.45-4.86-3.3-9.85-6.41-14.65-9.79-2.99-2.11-5.71-4.61-8.59-6.88-3.61-2.85-7.18-5.78-10.94-8.42-3.59-2.52-7.35-4.79-11.14-7.01-2.11-1.24-4.48-2.04-6.6-3.26-1.35-.95-2.65-1.97-3.89-3.06-2.49-1.83-5.06-3.55-7.52-5.42-1.68-1.28-3.13-2.87-4.85-4.08-2.36-1.65-4.87-3.07-7.33-4.56-2.94-1.79-5.87-3.57-8.84-5.31-1.4-.82-2.87-1.57-4.33-2.28-2.44-1.18-4.69-.43-6.64 1.06-3.09 2.36-6.61 2.82-10.31 2.91-3.77.17-7.53-.41-11.07-1.7a96.751 96.751 0 0 1-9.42-4.5c-2.87-1.49-5.68-3.1-8.48-4.72-1.1-.64-2.11-1.43-3.15-2.15-1.2-.8-2.4-1.65-3.92-2.71m171.11-10.56c-.14-1.74-.37-3.48-.7-5.2-.61-2.43-.6-4.42 1.84-6 2.24-1.45 4.44-2.93 7.1-3.33 2.96-.45 6-.42 8.91-1.05 3.53-.59 7.13-.56 10.65.1 1.11.14 2.48.12 3.24.76 1.27 1.06 1.81.38 2.48-.47.53-.61.99-1.29 1.36-2.01 1.63-3.61 2.98-7.37 4.83-10.86 2.55-4.82 5.43-9.46 8.21-14.14 1.1-1.86 2.33-3.64 3.53-5.44a32.14 32.14 0 0 0 2.28-3.29c1.62-3.2 3.04-6.49 4.66-9.69.95-1.88.82-4.13-.34-5.89-1.73-3.08-4.71-4.9-7.56-6.66a38.268 38.268 0 0 0-7.27-3.04c-1.35-.47-2.74-.8-4.16-.97-4.81-.63-9.51-1.18-13.08-5.25-1.22-1.5-2.02-3.29-2.31-5.2-.23-1.3-.6-2.57-1.1-3.79-.68-1.29-1.47-2.51-2.35-3.67-1.43-2.05-2.96-4.18-5.55-4.64-1.89-.24-3.81-.21-5.69.08-4.29.51-8.46 1.78-12.32 3.73a23.4 23.4 0 0 1-4.18 1.64c-2.64.7-5.33 1.25-8.01 1.81-1 .24-2.02.35-3.04.34-2.19-.09-4.36-.4-6.54-.51-3.8-.39-7.59.77-10.51 3.23-2.94 2.51-4.74 5.83-7.28 8.6a15.88 15.88 0 0 0-3.18 3.8c-2 4.54-5.94 6.77-10.07 8.47-2.86 1.18-6.17 1.21-9.22 1.98-1.88.48-3.95.93-5.1 2.76a47.662 47.662 0 0 0-2.74 5.01c-.52 1.09-1.12 2.24-.45 3.54 1.03 1.98 2 4 3.05 5.97 1.53 2.85 3.37 5.58 4.6 8.55.83 2.01 1.63 4.59 1.06 6.51-1.02 3.43-3.02 6.57-4.72 9.78-.79 1.49-2.37 2.76-2.6 4.28-.19 2.27-.04 4.55.46 6.77.21 1.01.69 1.95 1.4 2.7 2.59 2.88 6.24 3.63 9.77 4.54 1.65.43 3.33.71 5.03.84 3.23.45 6.52.29 9.69-.47.63-.22 1.29-.33 1.96-.33 2.08.13 4.15.42 6.24.54 3.7.2 7.41.3 11.11.47 3.78.17 7.57.35 11.35.55 1.21-.03 2.41.09 3.59.35 2.71.84 5.35 1.88 8.02 2.85 1.19.45 2.42.9 3.65 1.35m-214 46.73c.79 1.55 1.65 3.03 3.57 3.36 3.4.67 6.91.45 10.2-.63 6.69-2.31 10.12-7.51 12.45-13.73 1.49-3.96 2.82-7.98 4.42-11.9.84-1.88 1.86-3.68 3.06-5.36 1.5-2.25 2.12-5.02 4.3-6.91.88-.77 1.38-1.88 1.39-3.04-.57-2.93-.3-5.97.8-8.75a65.35 65.35 0 0 0 2.41-7.24c.52-1.78.71-3.67 1.34-5.41.68-1.78 1.51-3.49 2.51-5.12.7-1.01 1.48-1.96 2.34-2.84.87-1.28 1.89-2.46 3.03-3.5 1.66-1.22 3.49-2.18 5.44-2.85 1.16-.39 1.33-.88 1.25-1.84-.12-1.49-.26-2.97-.32-4.46-.03-.71.35-1.49.16-2.12-.34-1.19-.02-2.46.83-3.35 1.25-1.7 2.33-3.53 3.56-5.25.67-.99 1.43-1.91 2.29-2.75 4.46-4.12 9.72-7.56 11.77-13.71.82-2.26 1.37-4.62 1.64-7.01.08-1.99-.17-3.97-.75-5.87-.61-2.29-1.36-4.57-3.4-6.15a40.455 40.455 0 0 1-4.77-4.1c-2.16-2.28-4.97-2.59-7.66-2.28-3.7.6-7.36 1.38-10.98 2.35-6.66 1.47-11.78 5.32-15.96 10.51-1.61 1.99-2.91 4.24-4.53 6.22a16.299 16.299 0 0 1-10.72 6.09c-2.31.3-4.61.68-6.93.84-3.75.25-7.63-.19-11.24.64a38.874 38.874 0 0 0-15.83 7.67 8.468 8.468 0 0 0-3.61 6.22c-.06 4.21.68 8.4 2.19 12.33a8.92 8.92 0 0 1-.26 6.41c-1.55 3.8-3.65 7.37-5.55 11.04-.97 1.47-1.8 3.02-2.47 4.65-1.37 4.51-2.49 9.1-3.36 13.73-.28 2.29-.07 4.61.62 6.81.96 3.17 2.12 6.29 3.47 9.32.69 1.58 1.52 3.1 2.49 4.53a3.149 3.149 0 0 0 3.13 1.57c2.25-.27 4.53-.35 6.78-.66 2.14-.45 4.28.77 4.99 2.84.88 2.93 1.57 5.9 2.39 8.85 1 3.64 3.39 10.89 3.52 10.85M123.71 72.6c2.48-2.43 4.93-4.89 7.24-7.48 1.16-1.43 2.22-2.95 3.16-4.54 1.21-1.85 2.32-3.76 3.55-5.58 1.67-2.16 3.24-4.41 4.68-6.73 1.38-2.71 2.56-5.52 3.52-8.41 1.64-4.56 1.23-9.61-1.11-13.85-.26-.51-.4-1.07-.64-1.59-.71-1.84-1.58-3.6-2.62-5.28a24.06 24.06 0 0 0-4.1-3.77c-3.92-3.28-7.77-6.65-11.84-9.73-1.44-1.08-3.23-2.48-5.38-1.15-2.79 1.72-5.91 3.08-8.3 5.25a39.333 39.333 0 0 0-7.06 8.63 11.09 11.09 0 0 1-6.68 4.9c-3.61 1.16-7.37.97-11.08 1.05-3.84.09-7.18 1.58-10.52 3.26-5 2.51-8.27 6.76-11.12 11.29a12.507 12.507 0 0 1-5.79 4.94c-3.57 1.56-7.3 2.74-10.94 4.15-5.78 2.24-11.58 4.44-17.29 6.85-4.03 1.7-6.37 3.4-5.57 9.19.79 4.76 1.26 9.56 1.42 14.38.03 4.08 2.32 6.51 5.04 8.55 3.23 2.42 7.24 3.39 11.12 4.44 1.64.38 3.31.64 5 .76 3.15.35 6.3.72 9.45.9 1.78.1 3.58-.23 5.37-.23 1.89-.01 3.77.15 5.66.18.86.01 1.73-.24 2.59-.19 2.76.18 5.52.47 8.28.68 1.09-.05 2.18 0 3.25.15 1.19.45 2.54.12 3.39-.82 1.86-2.03 3.63-4.11 6.18-5.36 1.35-.67 2.62-1.51 3.95-2.22 3.53-1.91 7.28-3.92 10.82-5.8 5.59-1.93 11.06-4.21 16.37-6.82m147.68 12.57c2.41-1.19 4.26-3.26 5.16-5.78.68-2.02.94-4.19 1.6-6.22 1.22-3.22-.4-6.81-3.62-8.03-.19-.07-.38-.13-.57-.18-1.21-.41-2.42-.79-3.64-1.17a81.985 81.985 0 0 0-13.77-3.58c-2.7-.42-5.33-1.19-7.82-2.3-2.86-1.27-5.64-2.7-8.33-4.28-1.94-1.08-3.77-2.37-5.66-3.55-2.14-1.33-4.21-2.8-6.47-3.91-1.68-.83-3.64-1.08-5.41-1.77-3.3-1.31-6.54-1.93-9.97-.4-1.61.71-3.39 1.01-5.01 1.7-3.46 1.47-7.18 2.62-10.22 4.74-3.34 2.26-7.1 3.82-11.06 4.6-1.65.4-3.24 1.04-4.7 1.91-1.01.59-1.68 1.74-2.59 2.54a15.401 15.401 0 0 0-5.22 10.02c-.35 2.91-.33 5.88-1.7 8.6-.44.93-.81 1.88-1.11 2.86-.46 1.89-1.09 3.73-1.87 5.51-1.6 2.72-3.35 5.34-5.23 7.87-.82 1.15-.76 2.14.36 2.79 2.02 1.3 4.18 2.37 6.44 3.19 1.91.37 3.87.47 5.81.3 2.96 0 5.91-.1 8.87-.12 2.34-.02 4.67-.07 7 .02 1.76.09 3.51.28 5.24.57 1.86.29 3.7.68 5.51 1.18 1.97.57 3.98 2.07 5.81 1.85 2.55-.28 5.13-.24 7.67.12 1.58.2 3.18.17 4.77.28 2.14.15 4.28.44 6.42.46 3.23.04 6.46-.08 9.69-.18.43-.02.85-.18 1.18-.45 1.29-1.13 2.55-2.3 3.77-3.5a49.005 49.005 0 0 1 15.96-10.41c4.26-1.78 8.49-3.52 12.71-5.28M380.5 433.43l.3-.12c-.47-2.16-.94-4.32-1.42-6.48-.77-3.43-1.55-6.86-2.34-10.28-.9-3.89-1.87-7.76-2.69-11.67-.61-2.93-1.03-5.89-1.5-8.84-.44-2.8-.84-5.61-1.24-8.42-.76-5.37-1.47-10.75-2.29-16.11-.44-2.86-1.19-5.68-1.6-8.54-.71-4.92-1.2-9.87-1.92-14.79-.79-5.42-1.51-10.87-2.68-16.21-.57-2.85-1.72-5.56-3.36-7.97-1.92-2.65-4.66-4.73-7.12-6.97-.63-.57-1.63-.72-2.28-1.27-3.66-3.1-7.05-6.5-11.03-9.26a92.734 92.734 0 0 1-8.83-7.23c-4.74-3.99-7.7-9.71-8.21-15.88-.09-.6-.36-1.15-.78-1.58-.62-.58-1.29-1.11-2-1.58-.64-.56-1.32-1.07-2.04-1.52-2.09-1.11-4.18-2.24-6.35-3.16a10.17 10.17 0 0 0-4.23-.99c-2.87.29-5.76.12-8.58-.49-1.4-.36-2.84-.57-4.29-.63-3.15-.16-6.3-.24-9.46-.24-.98.08-1.95.26-2.9.52.37.87.84 1.69 1.4 2.45.98 1.03 2.3 1.74 3.26 2.79 2.96 3.22 5.86 6.49 8.68 9.82 2.74 3.24 5.37 6.57 8.02 9.89 2.53 3.16 5.1 6.29 7.5 9.55 3.25 4.4 6.38 8.9 9.5 13.39.98 1.46 1.88 2.97 2.69 4.54 2.29 4.32 4.56 8.66 6.79 13.02.9 1.76 1.69 3.57 2.46 5.39 1.64 3.92 3.21 7.87 4.84 11.79 1.62 3.88 2.36 5.3 4.03 9.15 1.78 4.1-1.69 9.02.13 13.11.42.95 1.82 4.98 2.22 5.93 1.58 3.73 3.05 7.5 4.73 11.18 2.91 6.39 1.98 12.89 4.45 19.78a24.04 24.04 0 0 0 4.21 6.24c4.13 4.01 16.28 4.72 20.04 7.69 1.41 1.2 2.71 2.55 3.89 4M147.65 154.15c.4-.62.7-1.3.88-2.01.13-1.55.14-3.11.03-4.66-.25-3.7.57-7.33.16-11.1-.61-5.57-3.11-10.1-6.38-14.27-2.24-2.86-5.25-5.1-7.68-7.83-2.24-2.4-3.99-5.21-5.15-8.27-.17-.55-.46-1.06-.86-1.48-3.3-3.15-4.46-7.47-6.05-11.47-1.43-3.57-2.05-7.46-3.02-11.21a1.938 1.938 0 0 0-2.64-1.65c-7.37 1.53-13.72 5.33-20.04 9.14-2.1 1.43-4.11 2.99-6.03 4.65-1.8 1.38-1.68 2.6.01 4.14 2.86 2.6 5.59 5.33 8.3 8.09 1.45 1.48 2.57 3.3 4.1 4.67a31.08 31.08 0 0 1 6.65 7.54 44.08 44.08 0 0 0 3.39 4.64c2.15 2.77 4.33 5.5 6.5 8.25.1.12.16.27.25.4.9 1.48 1.87 2.91 2.93 4.28 1.18 1.3 2.44 2.53 3.76 3.69 1.85 2.02 3.87 3.88 6.04 5.55 4.69 3.1 9.63 5.81 14.85 8.91M364.28 322.2c.15-.36.27-.72.38-1.09.22-1.63.56-3.23 1-4.81.74-1.78.92-3.75.51-5.63-.19-.48-.34-.98-.46-1.48-.34-4.17-2.06-7.89-3.71-11.62-.99-1.79-1.74-3.71-2.24-5.7-.55-3.15-2.05-6.13-3.14-9.19-.68-1.9-1.32-3.81-2.02-5.7-.6-1.77-1.3-3.5-2.09-5.19-1.17-2.31-2.66-4.46-3.8-6.78a3.075 3.075 0 0 0-2.67-1.82c-1.24-.11-2.49-.09-3.73.05-2.84.29-5.66.71-8.5.99-3.45.34-6.81.8-9.33 3.58-.8.64-1.17 1.69-.96 2.69.47 2.13.74 4.3 1.13 6.44.09.49.37.95.5 1.44.18.66.3 1.33.38 2 .21 2.03.01 4.18.63 6.07 1.43 3.91 3.72 7.45 6.71 10.36 1.99 2.06 4.56 3.55 6.86 5.33 1.38 1.08 2.69 2.24 4.06 3.34 2.58 2.06 5.11 4.17 7.77 6.11 1.24.9 2.66 1.44 3.46 2.96.44.83 1.56 1.31 2.38 1.93.65.5 1.35.94 1.98 1.46 1.59 1.36 3.15 2.74 4.9 4.26M236.2 110.19a4.326 4.326 0 0 0-3.87-2.36c-2.94-.1-5.88-.17-8.81-.29-2.77-.11-5.54-.3-8.31-.35-.63-.01-1.23.26-1.63.74a13.44 13.44 0 0 0-.9 3.47c-.26 1.75-.42 3.5-.49 5.27.01 1.35.09 2.69.23 4.03.17 2.46.29 4.93.52 7.38.31 3.32.72 6.63 1.07 9.95.05 2.08.27 4.16.68 6.2 1.22 4.16 2.68 8.26 4.26 12.3 1.71 4.86 5.26 8.85 9.88 11.13.83.57 1.97.36 2.54-.47.01-.02.02-.04.04-.05.54-.94 1.22-1.8 2-2.56 1.97-1.34 2.21-3.64 3.14-5.48 1.25-2.48 1.7-5.35 2.67-7.98.75-2.49.98-5.1.66-7.68-.17-3-.2-6.01-.33-9.01-.09-2.2-.1-4.42-.39-6.59-.41-3.06-1.07-6.09-1.59-9.13-.49-2.84-.92-5.68-1.37-8.52m-63.7 146.74c-.95-1.46-1.71-2.78-2.63-3.98-.41-.54-1.02-.9-1.69-1.01a8.79 8.79 0 0 0-7.27 2.42c-.89.92-1.64 1.98-2.54 2.88a20.67 20.67 0 0 0-4.98 9.57c-.68 2.46-1.34 4.93-2.13 7.35-.56 1.83.01 3.81 1.45 5.06.63.45.79.65.4 1.56-1.13 2.64-.61 3.5 2.08 4.96 1.68.92 3.28 2 4.9 3.02 3.61 2.28 7.07 4.86 10.86 6.78 4.12 2.04 8.63 3.15 13.23 3.27 2.01.07 4.03-.15 6.04-.19 2.83-.06 4.63-2.45 7.17-3.17.17-.3.19-.66.07-.98-1.36-1.48-2.81-2.88-4.19-4.33-2.09-2.21-4.5-4.21-6.15-6.72-3.09-4.7-5.8-9.65-8.51-14.58-2.19-3.96-4.15-8.06-6.11-11.91"/></g></g></g></svg>