<svg id="Calque_1" xmlns="http://www.w3.org/2000/svg" viewBox="0 0 20 20"><style>.st0{fill:#1e605f;stroke:#12635e;stroke-width:.38;stroke-linecap:round;stroke-linejoin:round}</style><g id="Instagram" transform="translate(0 8.459)"><g id="Groupe_64" transform="translate(0 -8.459)"><g id="Groupe_63" transform="translate(8.089 8.089)"><path id="Tracé_59" class="st0" d="M2.13 3.7c1.06 0 1.91-.86 1.91-1.91 0-.4-.13-.79-.36-1.11A1.905 1.905 0 0 0 .59.67C.35.99.23 1.38.23 1.78c0 1.06.85 1.91 1.9 1.92z"/></g></g><g id="Groupe_65" transform="translate(11.763 -2.909)"><path id="Tracé_61" d="M2.56-.13L.23-.12l.01 2.68h2.67V-.13h-.35z" fill="#1e605f"/></g><g id="Groupe_67" transform="translate(0 -8.459)"><g id="Groupe_66" transform="translate(.45 .45)"><path id="Tracé_62" class="st0" d="M9.78-.13C4.51-.13.23 4.15.23 9.42s4.28 9.55 9.55 9.55 9.55-4.28 9.55-9.55A9.568 9.568 0 0 0 9.78-.13zm5.43 8.44v4.45a2.1 2.1 0 0 1-2.1 2.1H6.44a2.1 2.1 0 0 1-2.1-2.1V6.09c0-1.16.94-2.1 2.1-2.1h6.66c1.16 0 2.1.94 2.1 2.1l.01 2.22z"/></g></g></g></svg>