<svg id="Calque_1" data-name="Calque 1" xmlns="http://www.w3.org/2000/svg" viewBox="0 0 97.75 29.5" width="98px" height="30px"><defs><style>.cls-1{fill:#12635e;}</style></defs><g id="logo"><g id="Groupe_16" data-name="Groupe 16"><g id="Groupe_1" data-name="Groupe 1"><path id="Tracé_1" data-name="Tracé 1" class="cls-1" d="M.31,10.91a1.55,1.55,0,0,1,2.16-.35,1.57,1.57,0,0,1,.34.34,3.23,3.23,0,0,0,3.35.83A1.17,1.17,0,0,0,6.71,11a1.05,1.05,0,0,0-.43-1.3C5.22,9.11,4.09,8.65,3.1,8A15.24,15.24,0,0,1,1.18,6.25,2.5,2.5,0,0,1,.3,4.35,3.58,3.58,0,0,1,3.78.78,3.15,3.15,0,0,1,5,.59c.66.1,1.29.4,2,.5s.89.7,1.07,1.2a2,2,0,0,1-.41,1,1.16,1.16,0,0,1-.84.38A10.54,10.54,0,0,1,5,3.07a2,2,0,0,0-2.2,1.08.75.75,0,0,0,.2.59,7.35,7.35,0,0,0,3.11,2.1A5.71,5.71,0,0,1,9.06,9.21a.71.71,0,0,1,.12.37,5.91,5.91,0,0,1-.56,2.9c-.48,1-1.37,1.24-2.3,1.53a8.13,8.13,0,0,1-.84.13,4.53,4.53,0,0,1-2.64-.45,4.54,4.54,0,0,1-1.15-.56,3.74,3.74,0,0,1-.89-1,1.87,1.87,0,0,1-.49-1.21"/></g><g id="Groupe_2" data-name="Groupe 2"><path id="Tracé_2" data-name="Tracé 2" class="cls-1" d="M14.41,11.35C15,10.25,15.46,9.11,16,8c.42-.78.93-1.53,1.4-2.3.37-.6.73-1.21,1.13-1.8s.93-1.33,1.4-2a1.73,1.73,0,0,0,.19-.28,1,1,0,0,1,1.4-.5l.16.1c.13.08.34.05.48.12s.38.2.38.31a11.19,11.19,0,0,0,1.16,3.22c.71,1.77,1.15,3.62,1.73,5.42.17.53.43,1,.61,1.57a3.87,3.87,0,0,1,.3,1.26c0,.49-.29.82-.95.82-1.39,0-1.56-.12-1.66-1.36a8.82,8.82,0,0,0-.22-1.23c-.25-1-1.25-1.08-2.14-1.13a18.27,18.27,0,0,0-3,.1A1.47,1.47,0,0,0,17,11.57a7.62,7.62,0,0,1-.71,1.66,1.25,1.25,0,0,1-1.52.67s-1.63-.52-.34-2.55M20.64,4,18.25,8.31l4-.32a13.39,13.39,0,0,0-1.6-4.05"/></g><g id="Groupe_3" data-name="Groupe 3"><path id="Tracé_3" data-name="Tracé 3" class="cls-1" d="M38.24,8.64q1.24-2.36,2.25-4.82a4.85,4.85,0,0,1,2.1-2.49,1.77,1.77,0,0,1,1.46.07,2.86,2.86,0,0,1,1.12,1.19,6.86,6.86,0,0,1,.68,2.11c.19,1.3.27,2.62.34,3.94,0,.58,0,3.42.07,4A1.28,1.28,0,0,1,45.11,14c-.43.05-1.12-.66-1.14-1.28A19,19,0,0,1,44,9.8a14.75,14.75,0,0,0-.25-5,4.74,4.74,0,0,0-.54-1,8.36,8.36,0,0,0-2,2.87,42.17,42.17,0,0,0-1.41,5.18c-.08.81-.56,1.18-1.3.86a2.31,2.31,0,0,1-1.44-1.65A37.92,37.92,0,0,0,35,6.13c-.27-.54-.63-1-1-1.67a16.57,16.57,0,0,0-.15,2.64,14.71,14.71,0,0,1-.28,2.47,10.24,10.24,0,0,0,.06,2.82.88.88,0,0,1-.34,1.16,1.88,1.88,0,0,1-1.13.31,1.1,1.1,0,0,1-1-1.21v0c.13-1.32.49-5.86.49-6.81a7.08,7.08,0,0,1,.88-4.2A1.27,1.27,0,0,1,33.85,1a1.44,1.44,0,0,1,1.2.79c.69,1.48,1.48,2.91,2.2,4.37.24.48.41,1,.61,1.5.12.33.26.65.38,1"/></g><g id="Groupe_4" data-name="Groupe 4"><path id="Tracé_4" data-name="Tracé 4" class="cls-1" d="M51.33,11.31C51.94,10.22,52.38,9.07,53,8c.42-.78.93-1.53,1.4-2.3.37-.6.73-1.21,1.13-1.8s.93-1.33,1.4-2a1.73,1.73,0,0,0,.19-.28,1,1,0,0,1,1.4-.5l.16.1c.13.08.34.05.48.12s.38.2.38.31a11.19,11.19,0,0,0,1.16,3.22c.71,1.77,1.15,3.62,1.73,5.43.17.53.43,1,.61,1.57a3.87,3.87,0,0,1,.3,1.26c0,.49-.29.81-.95.81-1.39,0-1.56-.12-1.66-1.36a8.82,8.82,0,0,0-.22-1.23c-.25-1-1.25-1.08-2.14-1.13a18.27,18.27,0,0,0-3,.1,1.47,1.47,0,0,0-1.37,1.25,7.16,7.16,0,0,1-.71,1.66,1.25,1.25,0,0,1-1.52.67s-1.63-.52-.34-2.55m6.23-7.4L55.17,8.28l4-.32a13.39,13.39,0,0,0-1.6-4"/></g><g id="Groupe_5" data-name="Groupe 5"><path id="Tracé_5" data-name="Tracé 5" class="cls-1" d="M85.55,11.22c.61-1.09,1-2.24,1.62-3.35.42-.78.93-1.53,1.4-2.3.37-.6.73-1.21,1.13-1.8s.93-1.33,1.4-2a1.73,1.73,0,0,0,.19-.28,1,1,0,0,1,1.4-.5l.16.1c.13.08.34,0,.48.12s.38.2.38.31a11.19,11.19,0,0,0,1.16,3.22c.71,1.77,1.15,3.62,1.73,5.43.17.53.43,1,.61,1.57a3.87,3.87,0,0,1,.3,1.26c0,.49-.29.81-1,.81-1.39,0-1.56-.12-1.66-1.36a8.82,8.82,0,0,0-.22-1.23c-.26-1-1.25-1.08-2.14-1.13a18.27,18.27,0,0,0-3.05.1,1.47,1.47,0,0,0-1.37,1.25,7.16,7.16,0,0,1-.71,1.66,1.25,1.25,0,0,1-1.52.67s-1.63-.52-.34-2.55m6.23-7.4L89.39,8.19l4-.32a13.39,13.39,0,0,0-1.6-4.05"/></g><g id="Groupe_6" data-name="Groupe 6"><path id="Tracé_6" data-name="Tracé 6" class="cls-1" d="M70.9,5C71,6,71.17,7,71.26,8c.06.64,0,1.3,0,1.94,0,.85.09,1.7.12,2.55s-.38,1.35-1.06,1.41-1.06-.47-1.17-1.26c-.08-.52-.18-1-.23-1.32a47.13,47.13,0,0,0-.17-5.7,25.1,25.1,0,0,1-.48-2.86,1.73,1.73,0,0,1,.44-1.32c.34-.26,1.75-1.15,3.12.82.74.81,4,5.61,4.9,6.32a7.59,7.59,0,0,1,1,1.22c0-.82-.09-1.44-.13-2.06a25,25,0,0,0-.53-4.81c-.39-1.06-.19-1.63.63-1.88a1.47,1.47,0,0,1,1.88.89,1.4,1.4,0,0,1,.08.34,24.43,24.43,0,0,1,.1,2.57c0,.65.2,6.08.26,6.93a1.72,1.72,0,0,1-2.13,1.89,1.64,1.64,0,0,1-1-1c-.26-1.18-4-5.79-5-6.61a7.12,7.12,0,0,1-.94-1L70.9,5"/></g><g id="Groupe_7" data-name="Groupe 7"><path id="Tracé_7" data-name="Tracé 7" class="cls-1" d="M1.46,27.72c.17.35,2.49,0,3.52,0,.15,0,.52,0,.61.08s.07.43.13.68a.4.4,0,0,1-.18.26C4,28.7.93,28.81.59,28.66a.47.47,0,0,1-.18-.29c0-1.16,0-2.6,0-3.76,0-.62.08-4.11,0-4.36s0-.9.48-.9c.12,0,.31.28.33.47.13.75-.19,7,.23,7.9"/></g><g id="Groupe_8" data-name="Groupe 8"><path id="Tracé_8" data-name="Tracé 8" class="cls-1" d="M11.06,24.22c.12,1.33,0,2.33.08,3.7.29,0,1,0,1.33,0,1.33,0,2,0,3.23,0,.23,0,.49.86-.11.86H10.54c-.38,0-.32-.26-.35-.51-.11-.77-.06-5.91-.12-7,0-.46-.26-1.81.37-1.79,1.62,0,3.24,0,4.91,0,.27,0,.16.11.17.32-.08.42-.12.48-.37.5s-2.8,0-3.75,0c-.42,0-.37.33-.37.53a17.81,17.81,0,0,0,0,2.31c0,.13,0,.33.35.33,1.24,0,1.65,0,3-.08.17-.05.65,0,.63.21,0,0,.08.65-.08.65-1.26-.06-2.54.07-3.91,0"/></g><g id="Groupe_9" data-name="Groupe 9"><path id="Tracé_9" data-name="Tracé 9" class="cls-1" d="M92.83,24.22c.13,1.33,0,2.33.09,3.7.28,0,1,0,1.32,0,1.33,0,2,0,3.23,0,.23,0,.5.86-.1.86H92.32c-.39,0-.32-.26-.35-.51-.11-.77-.07-5.91-.13-7,0-.46-.25-1.81.37-1.79,1.62,0,3.25,0,4.92,0,.27,0,.16.11.16.32-.08.42-.11.48-.37.5s-2.8,0-3.74,0c-.43,0-.37.33-.37.53a16.19,16.19,0,0,0,0,2.31c0,.13,0,.33.35.33,1.24,0,1.65,0,3-.08.17-.05.64,0,.63.21,0,0,.08.65-.09.65-1.25-.06-2.54.07-3.91,0"/></g><g id="Groupe_10" data-name="Groupe 10"><path id="Tracé_10" data-name="Tracé 10" class="cls-1" d="M73.1,24.28c.12,1.33-.12,2.83,0,4.2,0,.16,0,.26-.75.26-.24,0-.14-.38-.18-.63,0-.91,0-5.79-.05-6.88,0-.47-.26-1.82.36-1.8,1.62.05,3.24,0,4.92,0,.27,0,.16.11.17.32-.09.42-.12.48-.37.5s-2.81,0-3.76,0c-.42,0-.36.33-.37.53a23.42,23.42,0,0,0,0,2.37c0,.13,0,.34.36.34,1.23,0,1.64,0,3-.09.18,0,.65,0,.64.21,0,0,.08.66-.08.66-1.24-.06-2.54.06-3.91,0"/></g><g id="Groupe_11" data-name="Groupe 11"><path id="Tracé_11" data-name="Tracé 11" class="cls-1" d="M63.07,24.28c.13,1.33-.12,2.83,0,4.2,0,.16,0,.26-.74.26-.25,0-.15-.38-.19-.63,0-.91,0-5.79,0-6.88,0-.47-.27-1.82.35-1.8,1.62.05,3.24,0,4.92,0,.27,0,.16.11.17.32-.08.42-.12.48-.37.5-.4.05-2.81,0-3.75,0-.43,0-.37.33-.37.53a18.74,18.74,0,0,0,0,2.37c0,.13,0,.34.35.34,1.24,0,1.65,0,3-.09.19,0,.65,0,.64.21,0,0,.09.66-.08.66-1.24-.06-2.54.06-3.91,0"/></g><g id="Groupe_12" data-name="Groupe 12"><path id="Tracé_12" data-name="Tracé 12" class="cls-1" d="M27.18,21c-.52,1.84,1.53,2.26,2.16,2.67s3.14.76,2.5,3.64c-.28.93-1.08,1.73-3.46,1.69a5.39,5.39,0,0,1-2.31-.53c-.07-.13-.17-.16-.13-.43s.09-.59.36-.42a6.79,6.79,0,0,0,3.5.46c1.92-.67,1-2.66.37-3.05a34.85,34.85,0,0,1-3.25-1.62,2.29,2.29,0,0,1-.3-3.22,2.57,2.57,0,0,1,.45-.42,4.78,4.78,0,0,1,4-.14c.53.15.44.35.35.65a.28.28,0,0,1-.28.27c-.16,0-.6-.3-.77-.33-1.12-.28-2.57-.36-3.2.78"/></g><g id="Groupe_13" data-name="Groupe 13"><path id="Tracé_13" data-name="Tracé 13" class="cls-1" d="M83,19.65c0-.16-.06-.22-.78-.22-.25,0-.15.38-.18.63,0,.92.11,5.8.06,6.9,0,.46-.26,1.8.37,1.79,1.62-.05,3.09,0,4.77,0,.27,0,.15-.11.16-.32-.08-.42,0-.46-.21-.49-.4,0-2.81,0-3.76,0-.42,0-.37-.33-.37-.54,0-.63,0-6.14-.06-7.74"/></g><g id="Groupe_14" data-name="Groupe 14"><path id="Tracé_14" data-name="Tracé 14" class="cls-1" d="M43.74,27.63a4.69,4.69,0,0,1-4.91.94c-2.74-1-3.2-4.84-2-7.23a4.58,4.58,0,0,1,5.47-1.91A4.7,4.7,0,0,1,45,22.68a6,6,0,0,1-1.22,4.95M40.91,28c1.2-.09,2.8-.52,3.11-3.69,0-3.05-1.57-3.56-1.88-3.74a3.35,3.35,0,0,0-4.18.72c-1.84,3.26-.35,6.84,2.95,6.71"/></g><g id="Groupe_15" data-name="Groupe 15"><path id="Tracé_15" data-name="Tracé 15" class="cls-1" d="M56.51,27.08A3.2,3.2,0,0,1,53.33,29a3,3,0,0,1-3.12-2.16c-.5-1.2-.19-5.53-.22-6.67-.05-.33,0-.56.31-.67s.58-.12.58.15,0,4.56,0,5.87C51,27.9,52.63,28,53.8,28a2.28,2.28,0,0,0,2-1.75,52.78,52.78,0,0,0,0-5.9,2.85,2.85,0,0,1,.16-1c0-.12.62,0,.75.11s.09.43.14.67c-.08,1.13.22,5.78-.34,6.87"/></g></g></g></svg>