<svg id="Calque_1" xmlns="http://www.w3.org/2000/svg" viewBox="0 0 229 14" width="229px" height="14px"><style>.st0{fill:#12635e}</style><g transform="translate(0 3.647)" id="logo"><g id="Groupe_16" transform="translate(0 -3.647)"><g id="Groupe_1" transform="translate(-.001 .001)"><path id="Tracé_1" class="st0" d="M.31 10.91c.5-.69 1.46-.85 2.16-.35.13.09.24.21.34.34.86.9 2.16 1.22 3.35.83.28-.16.48-.44.55-.75.2-.48.01-1.03-.43-1.3-1.06-.57-2.19-1.03-3.18-1.67a15.24 15.24 0 0 1-1.92-1.76C.62 5.77.3 5.08.3 4.35A3.58 3.58 0 0 1 3.78.78C4.17.64 4.58.57 5 .59c.66.1 1.29.4 1.95.5.75.11.89.7 1.07 1.2-.05.34-.19.67-.41.95-.21.24-.52.37-.84.38-.59-.13-1.17-.32-1.73-.55a2.04 2.04 0 0 0-2.2 1.08c-.02.22.05.43.2.59.84.96 1.91 1.68 3.11 2.1 1.21.44 2.23 1.27 2.91 2.37.07.11.12.24.12.37.06 1-.13 2-.56 2.9-.48 1.02-1.37 1.24-2.3 1.53-.27.08-.57.08-.84.13-.91.12-1.83-.04-2.64-.45-.41-.13-.79-.32-1.15-.56-.35-.28-.66-.62-.89-1.01-.3-.33-.48-.76-.49-1.21"/></g><g id="Groupe_2" transform="translate(13.619 .465)"><path id="Tracé_2" class="st0" d="M.79 10.88c.61-1.09 1.05-2.24 1.62-3.35.42-.78.93-1.53 1.4-2.3.37-.6.73-1.21 1.13-1.8.45-.67.93-1.33 1.4-2 .07-.09.14-.18.19-.28a1.05 1.05 0 0 1 1.56-.4c.13.08.34.05.48.12s.38.2.38.31c.22 1.13.61 2.21 1.16 3.22.71 1.77 1.15 3.62 1.73 5.43.17.53.43 1.04.61 1.57.17.4.27.82.3 1.26 0 .49-.29.81-.95.81-1.39.01-1.56-.12-1.66-1.36-.04-.41-.12-.82-.22-1.23-.25-1.03-1.25-1.08-2.14-1.13-1.02-.05-2.04-.02-3.05.1-.69.04-1.27.56-1.37 1.25-.17.58-.41 1.14-.71 1.66-.26.58-.92.86-1.52.67.01 0-1.63-.52-.34-2.55m6.23-7.4L4.63 7.85l3.99-.32c-.31-1.43-.85-2.8-1.6-4.05"/></g><g id="Groupe_3" transform="translate(30.873 .426)"><path id="Tracé_3" class="st0" d="M7.37 8.21c.83-1.57 1.58-3.18 2.25-4.82A4.839 4.839 0 0 1 11.72.9c.47-.19 1.01-.16 1.46.07.48.28.87.69 1.12 1.19.34.66.57 1.38.68 2.11.19 1.3.27 2.62.34 3.94.03.58-.03 3.42.07 3.99.06.69-.46 1.3-1.15 1.37-.43.05-1.12-.66-1.14-1.28-.06-.97-.05-1.95.04-2.92.2-1.66.11-3.34-.25-4.96-.13-.37-.32-.72-.54-1.05a8.46 8.46 0 0 0-1.97 2.87c-.58 1.7-1.05 3.42-1.41 5.18-.08.81-.56 1.18-1.3.86-.72-.27-1.27-.89-1.44-1.65A39.36 39.36 0 0 0 4.16 5.7c-.27-.54-.63-1.02-1.04-1.67-.12.87-.17 1.75-.15 2.64-.02.83-.12 1.65-.28 2.47-.11.94-.09 1.89.06 2.82.21.42.06.93-.34 1.16-.33.22-.73.33-1.13.31-.6-.07-1.04-.61-.97-1.21v-.02C.44 10.88.8 6.34.8 5.39c-.15-1.46.16-2.92.88-4.2.27-.44.78-.68 1.3-.59.51.03.97.33 1.2.79.69 1.48 1.48 2.91 2.2 4.37.24.48.41 1 .61 1.5.12.33.26.65.38.95"/></g><g id="Groupe_4" transform="translate(50.539 .426)"><path id="Tracé_4" class="st0" d="M.79 10.88c.61-1.09 1.05-2.24 1.62-3.35.42-.78.93-1.53 1.4-2.3.37-.6.73-1.21 1.13-1.8.45-.67.93-1.33 1.4-2 .07-.09.14-.18.19-.28a1.05 1.05 0 0 1 1.56-.4c.13.08.34.05.48.12s.38.2.38.31c.22 1.13.61 2.21 1.16 3.22.71 1.77 1.15 3.62 1.73 5.43.17.53.43 1.04.61 1.57.17.4.27.82.3 1.26 0 .49-.29.81-.95.81-1.39.01-1.56-.12-1.66-1.36-.04-.41-.12-.82-.22-1.23-.25-1.03-1.25-1.08-2.14-1.13-1.02-.05-2.04-.02-3.05.1-.69.04-1.27.56-1.37 1.25-.17.58-.4 1.14-.71 1.66-.26.58-.92.86-1.52.67.01 0-1.63-.52-.34-2.55m6.23-7.4L4.63 7.85l3.99-.32c-.31-1.43-.85-2.8-1.6-4.05"/></g><g id="Groupe_5" transform="translate(84.756 .336)"><path id="Tracé_5" class="st0" d="M.79 10.88c.61-1.09 1.05-2.24 1.62-3.35.42-.78.93-1.53 1.4-2.3.37-.6.73-1.21 1.13-1.8.45-.67.93-1.33 1.4-2 .07-.09.14-.18.19-.28a1.05 1.05 0 0 1 1.56-.4c.13.08.34.05.48.12s.38.2.38.31c.22 1.13.61 2.21 1.16 3.22.71 1.77 1.15 3.62 1.73 5.43.17.53.43 1.04.61 1.57.17.4.27.82.3 1.26 0 .49-.29.81-.95.81-1.39.01-1.56-.12-1.66-1.36-.04-.41-.12-.82-.22-1.23-.26-1.03-1.25-1.08-2.14-1.13-1.02-.05-2.04-.02-3.05.1-.69.04-1.27.56-1.37 1.25-.17.58-.4 1.14-.71 1.66-.26.58-.92.86-1.52.67.01 0-1.63-.52-.34-2.55m6.23-7.4L4.63 7.85l3.99-.32c-.31-1.43-.85-2.8-1.6-4.05"/></g><g id="Groupe_6" transform="translate(68.022 .371)"><path id="Tracé_6" class="st0" d="M2.88 4.66c.12.98.27 1.96.36 2.94.06.64.02 1.3.05 1.94.03.85.09 1.7.12 2.55.03.83-.38 1.35-1.06 1.41-.58.06-1.06-.47-1.17-1.26-.08-.52-.18-1.03-.23-1.32.06-1.9 0-3.81-.17-5.7C.57 4.28.4 3.32.3 2.36c-.04-.48.11-.96.44-1.32.34-.26 1.75-1.15 3.12.82.74.81 4 5.61 4.9 6.32.36.37.68.78.96 1.22-.05-.82-.09-1.44-.13-2.06-.02-1.62-.2-3.23-.53-4.81C8.67 1.47 8.87.9 9.69.65c.76-.27 1.61.12 1.88.89.04.11.07.23.08.34.08.85.11 1.71.1 2.57.01.65.2 6.08.26 6.93.12.94-.55 1.81-1.49 1.93-.21.03-.43.01-.64-.04-.46-.19-.81-.57-.95-1.04-.26-1.18-3.97-5.79-4.96-6.61-.35-.31-.66-.67-.94-1.04-.05.02-.1.05-.15.08"/></g><g id="Groupe_7" transform="translate(110.252 1.769)"><path id="Tracé_7" class="st0" d="M1.58 10.79c.21.43 3.03.06 4.29.02.18 0 .64-.05.75.09.17.21.08.53.15.84-.02.13-.1.24-.22.31-1.85-.06-5.62.08-6.03-.11a.51.51 0 0 1-.22-.35C.26 10.17.31 8.42.31 7c0-.76.1-5.02 0-5.32C.23 1.44.3.58.9.58c.14 0 .37.35.4.58.15.91-.24 8.56.28 9.63"/></g><g id="Groupe_8" transform="translate(121.962 1.863)"><path id="Tracé_8" class="st0" d="M1.58 6.43c.15 1.62-.05 2.84.1 4.52.35-.03 1.27-.02 1.62-.02 1.62-.01 2.47.04 3.94-.02.28-.01.6 1.05-.13 1.05H.95c-.47 0-.39-.32-.43-.62C.39 10.4.44 4.12.37 2.78.34 2.22.06.58.82.6c1.98.06 3.96-.02 6-.02.33 0 .19.13.2.39-.1.51-.14.58-.45.61-.48.04-3.42.03-4.57.02-.52 0-.45.4-.45.65-.06.94-.05 1.87.02 2.81.02.16-.02.41.43.41 1.51 0 2.01-.04 3.68-.1.21-.06.79.01.77.25 0 0 .1.8-.1.8-1.53-.07-3.1.08-4.77.01"/></g><g id="Groupe_9" transform="translate(221.737 1.863)"><path id="Tracé_9" class="st0" d="M1.58 6.43c.15 1.62-.05 2.84.1 4.52.35-.03 1.27-.02 1.62-.02 1.62-.01 2.47.04 3.94-.02.28-.01.6 1.05-.13 1.05H.95c-.47 0-.39-.32-.43-.62C.39 10.4.44 4.12.37 2.78.34 2.22.06.58.82.6c1.98.06 3.96-.02 6-.02.33 0 .19.13.2.39-.1.51-.14.58-.45.61-.48.04-3.42.03-4.57.02-.52 0-.45.4-.45.65-.06.94-.05 1.87.02 2.81.02.16-.02.41.43.41 1.51 0 2.01-.04 3.68-.1.21-.06.79.01.77.25 0 0 .1.8-.1.8-1.53-.07-3.1.08-4.77.01"/></g><g id="Groupe_10" transform="translate(197.68 1.861)"><path id="Tracé_10" class="st0" d="M1.56 6.51c.15 1.62-.15 3.45.01 5.12.02.19-.04.32-.91.32-.3 0-.18-.47-.22-.77-.02-1.11.02-7.07-.06-8.4C.34 2.21.06.57.81.59 2.79.65 4.77.57 6.82.57c.33 0 .19.13.2.39-.1.51-.14.58-.45.61-.49.05-3.43.04-4.58.03-.52 0-.44.4-.45.65-.06.96-.06 1.92 0 2.89.02.16-.02.41.43.41 1.51 0 2.01-.04 3.68-.1.22-.06.79 0 .78.25 0 0 .1.8-.1.8-1.52-.07-3.1.08-4.77.01"/></g><g id="Groupe_11" transform="translate(185.444 1.861)"><path id="Tracé_11" class="st0" d="M1.56 6.51c.15 1.62-.15 3.45.01 5.12.02.19-.04.32-.91.32-.3 0-.18-.47-.22-.77-.02-1.11.02-7.07-.06-8.4C.34 2.21.06.57.81.59 2.79.65 4.77.57 6.82.57c.33 0 .19.13.2.39-.1.51-.14.58-.45.61-.49.05-3.43.04-4.58.03-.52 0-.44.4-.45.65-.06.96-.06 1.92 0 2.89.02.16-.02.41.43.41 1.51 0 2.01-.04 3.68-.1.22-.06.79 0 .78.25 0 0 .1.8-.1.8-1.52-.07-3.1.08-4.77.01"/></g><g id="Groupe_12" transform="translate(141.392 1.589)"><path id="Tracé_12" class="st0" d="M1.82 2.72c-.63 2.24 1.86 2.75 2.63 3.25.63.39 3.83.93 3.05 4.44-.34 1.14-1.31 2.12-4.22 2.07-.98 0-1.94-.23-2.82-.65-.08-.16-.2-.2-.15-.52.13-.32.1-.73.43-.52.44.47 3.5.82 4.28.56 2.34-.82 1.2-3.24.45-3.72-.93-.61-2.75-1.05-3.97-1.98a2.788 2.788 0 0 1-.37-3.92c.16-.19.35-.37.56-.51C3.46.1 5.7.72 6.58 1.04c.65.19.54.43.43.8-.02.18-.17.32-.35.33-.19.04-.73-.37-.94-.41-1.36-.34-3.13-.43-3.9.96"/></g><g id="Groupe_13" transform="translate(209.895 1.875)"><path id="Tracé_13" class="st0" d="M1.47.84C1.49.65 1.4.57.52.57c-.3 0-.18.47-.22.77-.02 1.12.14 7.08.07 8.42-.03.56-.31 2.2.45 2.18 1.98-.06 3.77 0 5.82 0 .33 0 .19-.13.2-.39-.1-.51.05-.56-.26-.59-.49-.04-3.43-.03-4.58-.02-.52 0-.45-.4-.45-.65-.01-.77-.06-7.5-.08-9.45"/></g><g id="Groupe_14" transform="translate(153.939 1.563)"><path id="Tracé_14" class="st0" d="M9.48 10.89a5.735 5.735 0 0 1-5.99 1.15C.14 10.78-.42 6.13 1.08 3.22 2.65.32 6.16.28 7.76.89c1.63.75 2.81 2.21 3.2 3.96.33 2.78-.35 4.85-1.48 6.04m-3.46.4c1.47-.11 3.42-.63 3.8-4.5.04-3.72-1.92-4.34-2.3-4.56a4.083 4.083 0 0 0-5.1.88C.18 7.09 2 11.45 6.02 11.29"/></g><g id="Groupe_15" transform="translate(170.666 1.814)"><path id="Tracé_15" class="st0" d="M8.33 9.97a3.916 3.916 0 0 1-3.88 2.31c-1.74.13-3.33-.97-3.81-2.64C.04 8.18.41 2.89.38 1.5.32 1.1.39.82.75.68c.34-.13.71-.14.71.19.03.21.06 5.56.04 7.16.09 2.94 2.1 3 3.52 3.11 1.19-.11 2.18-.98 2.45-2.14.13-2.4.13-4.8-.01-7.19 0-.4.07-.8.2-1.18.04-.14.76.04.91.14.24.15.12.53.18.82-.1 1.38.27 7.05-.42 8.38"/></g></g></g></svg>