<?xml version="1.0" encoding="utf-8"?>
<!-- Generator: Adobe Illustrator 23.0.6, SVG Export Plug-In . SVG Version: 6.00 Build 0)  -->
<svg version="1.1" id="Calque_1" xmlns="http://www.w3.org/2000/svg" xmlns:xlink="http://www.w3.org/1999/xlink" x="0px" y="0px"
	 viewBox="0 0 229 14" style="enable-background:new 0 0 229 14;" xml:space="preserve">
<style type="text/css">
	.st0{clip-path:url(#SVGID_2_);}
	.st1{fill:#12635E;}
</style>
<g>
	<defs>
		<rect id="SVGID_1_" x="-0.07" y="0.35" width="229" height="13.62"/>
	</defs>
	<clipPath id="SVGID_2_">
		<use xlink:href="#SVGID_1_"  style="overflow:visible;"/>
	</clipPath>
	<g id="Groupe_16" class="st0">
		<g id="Groupe_1" transform="translate(-0.001 0.001)">
			<path id="Tracé_1" class="st1" d="M-0.06,10.69C0.44,10,1.41,9.84,2.1,10.34c0.13,0.09,0.24,0.21,0.34,0.34
				c0.86,0.9,2.16,1.22,3.35,0.83c0.28-0.16,0.48-0.44,0.55-0.75c0.2-0.48,0.01-1.03-0.43-1.3C4.85,8.89,3.73,8.43,2.74,7.79
				C2.05,7.26,1.41,6.67,0.82,6.03c-0.55-0.48-0.87-1.17-0.88-1.9c0.01-1.94,1.55-3.52,3.48-3.57c0.39-0.14,0.8-0.21,1.21-0.2
				c0.66,0.1,1.29,0.4,1.95,0.5c0.75,0.11,0.89,0.71,1.07,1.2C7.61,2.41,7.47,2.74,7.24,3.02C7.03,3.26,6.73,3.39,6.41,3.4
				C5.82,3.27,5.24,3.08,4.68,2.85c-0.89-0.17-1.79,0.27-2.2,1.08c-0.02,0.22,0.05,0.43,0.2,0.59c0.84,0.96,1.91,1.68,3.12,2.1
				C7,7.06,8.02,7.89,8.7,8.99C8.77,9.1,8.81,9.22,8.82,9.35c0.06,1-0.13,2-0.56,2.9c-0.48,1.02-1.37,1.24-2.3,1.53
				c-0.27,0.08-0.57,0.08-0.84,0.13c-0.91,0.12-1.83-0.04-2.64-0.45c-0.41-0.13-0.79-0.32-1.15-0.56c-0.35-0.28-0.66-0.62-0.89-1.01
				C0.13,11.57-0.04,11.14-0.06,10.69"/>
		</g>
		<g id="Groupe_2" transform="translate(13.619 0.465)">
			<path id="Tracé_2" class="st1" d="M0.43,10.66c0.61-1.08,1.05-2.24,1.62-3.34c0.41-0.79,0.93-1.54,1.4-2.3
				c0.37-0.6,0.73-1.21,1.13-1.8c0.45-0.67,0.93-1.33,1.4-2c0.07-0.09,0.14-0.18,0.19-0.28c0.24-0.52,0.87-0.74,1.39-0.5
				c0.06,0.03,0.11,0.06,0.17,0.1C7.86,0.6,8.06,0.58,8.21,0.65s0.38,0.2,0.38,0.31C8.81,2.09,9.2,3.17,9.75,4.18
				c0.71,1.77,1.15,3.62,1.73,5.43c0.17,0.53,0.43,1.04,0.61,1.57c0.17,0.4,0.27,0.82,0.3,1.26c0,0.49-0.29,0.81-0.95,0.81
				c-1.39,0.01-1.56-0.12-1.66-1.36c-0.04-0.41-0.12-0.82-0.22-1.23C9.3,9.63,8.31,9.58,7.42,9.53C6.4,9.48,5.38,9.52,4.37,9.63
				C3.68,9.67,3.11,10.19,3,10.88c-0.17,0.58-0.41,1.14-0.71,1.66c-0.26,0.58-0.92,0.86-1.52,0.67C0.77,13.21-0.87,12.69,0.43,10.66
				 M6.65,3.26L4.27,7.63l3.99-0.32C7.95,5.88,7.41,4.51,6.65,3.26"/>
		</g>
		<g id="Groupe_3" transform="translate(30.873 0.426)">
			<path id="Tracé_3" class="st1" d="M7.01,7.99c0.83-1.57,1.58-3.18,2.25-4.82c0.39-1.05,1.13-1.92,2.1-2.49
				c0.47-0.19,1.01-0.16,1.46,0.07c0.48,0.28,0.87,0.69,1.12,1.19c0.34,0.66,0.57,1.38,0.68,2.11c0.19,1.3,0.27,2.62,0.34,3.94
				c0.03,0.58-0.03,3.42,0.07,3.99c0.06,0.69-0.46,1.3-1.15,1.37c-0.43,0.05-1.12-0.66-1.14-1.28c-0.06-0.97-0.05-1.95,0.04-2.92
				c0.2-1.66,0.11-3.34-0.25-4.96C12.4,3.81,12.22,3.46,12,3.14c-0.85,0.81-1.52,1.79-1.97,2.87c-0.58,1.7-1.05,3.42-1.41,5.18
				c-0.08,0.81-0.56,1.18-1.3,0.86c-0.73-0.26-1.28-0.89-1.45-1.65C5.29,8.71,4.59,7.07,3.8,5.48C3.52,4.94,3.17,4.45,2.76,3.81
				C2.64,4.68,2.59,5.56,2.61,6.44C2.58,7.27,2.49,8.1,2.33,8.92c-0.11,0.94-0.09,1.89,0.06,2.82c0.21,0.42,0.06,0.93-0.34,1.16
				c-0.33,0.22-0.73,0.33-1.13,0.31C0.31,13.14-0.13,12.6-0.06,12c0-0.01,0-0.01,0-0.02c0.13-1.32,0.49-5.86,0.49-6.81
				C0.28,3.71,0.58,2.24,1.3,0.96c0.27-0.44,0.78-0.68,1.3-0.59C3.11,0.4,3.57,0.71,3.8,1.16C4.49,2.64,5.28,4.08,6,5.54
				c0.24,0.48,0.41,1,0.62,1.5C6.75,7.36,6.89,7.69,7.01,7.99"/>
		</g>
		<g id="Groupe_4" transform="translate(50.539 0.426)">
			<path id="Tracé_4" class="st1" d="M0.43,10.66c0.61-1.08,1.05-2.24,1.62-3.34c0.41-0.79,0.93-1.54,1.4-2.3
				c0.37-0.6,0.73-1.21,1.13-1.8c0.45-0.67,0.93-1.33,1.4-2c0.07-0.09,0.14-0.18,0.19-0.28c0.24-0.52,0.87-0.74,1.39-0.5
				c0.06,0.03,0.11,0.06,0.17,0.1C7.86,0.6,8.06,0.58,8.21,0.65s0.38,0.2,0.38,0.31C8.81,2.09,9.2,3.17,9.75,4.18
				c0.71,1.77,1.15,3.62,1.73,5.43c0.17,0.53,0.43,1.04,0.61,1.57c0.17,0.4,0.27,0.82,0.3,1.26c0,0.49-0.29,0.81-0.95,0.81
				c-1.39,0.01-1.56-0.12-1.66-1.36c-0.04-0.41-0.12-0.82-0.22-1.23C9.3,9.63,8.31,9.58,7.42,9.53C6.4,9.48,5.38,9.52,4.37,9.63
				C3.68,9.67,3.11,10.19,3,10.88c-0.17,0.58-0.4,1.14-0.71,1.66c-0.26,0.58-0.92,0.86-1.52,0.67C0.77,13.21-0.87,12.69,0.43,10.66
				 M6.65,3.26L4.27,7.63l3.99-0.32C7.95,5.88,7.41,4.51,6.65,3.26"/>
		</g>
		<g id="Groupe_5" transform="translate(84.756 0.336)">
			<path id="Tracé_5" class="st1" d="M0.43,10.66c0.61-1.08,1.05-2.24,1.62-3.34c0.41-0.79,0.93-1.54,1.4-2.3
				c0.37-0.6,0.73-1.21,1.13-1.8c0.45-0.67,0.93-1.33,1.4-2c0.07-0.09,0.14-0.18,0.19-0.28c0.24-0.52,0.87-0.74,1.39-0.5
				c0.06,0.03,0.11,0.06,0.17,0.1C7.86,0.6,8.06,0.58,8.21,0.65s0.38,0.2,0.38,0.31C8.81,2.09,9.2,3.17,9.75,4.18
				c0.71,1.77,1.15,3.62,1.73,5.43c0.17,0.53,0.43,1.04,0.61,1.57c0.17,0.4,0.27,0.82,0.3,1.26c0,0.49-0.29,0.81-0.95,0.81
				c-1.39,0.01-1.56-0.12-1.66-1.36c-0.04-0.41-0.12-0.82-0.22-1.23C9.3,9.63,8.31,9.58,7.42,9.53C6.4,9.48,5.38,9.52,4.37,9.63
				C3.68,9.67,3.11,10.19,3,10.88c-0.17,0.58-0.4,1.14-0.71,1.66c-0.26,0.58-0.92,0.86-1.52,0.67C0.77,13.21-0.87,12.69,0.43,10.66
				 M6.65,3.26L4.27,7.63l3.99-0.32C7.95,5.88,7.41,4.51,6.65,3.26"/>
		</g>
		<g id="Groupe_6" transform="translate(68.022 0.371)">
			<path id="Tracé_6" class="st1" d="M2.52,4.43c0.12,0.98,0.27,1.96,0.36,2.94c0.06,0.64,0.02,1.3,0.05,1.94
				c0.03,0.85,0.09,1.7,0.12,2.55c0.03,0.83-0.38,1.35-1.06,1.41c-0.58,0.06-1.06-0.47-1.17-1.26c-0.08-0.52-0.17-1.03-0.22-1.32
				c0.06-1.9,0-3.81-0.17-5.7C0.2,4.06,0.04,3.1-0.06,2.14c-0.04-0.48,0.12-0.96,0.44-1.32c0.34-0.26,1.75-1.15,3.12,0.82
				c0.74,0.81,4,5.61,4.9,6.32c0.36,0.37,0.69,0.78,0.97,1.21C9.31,8.36,9.27,7.74,9.23,7.12C9.21,5.5,9.03,3.89,8.69,2.31
				C8.3,1.25,8.51,0.68,9.32,0.43c0.76-0.27,1.61,0.12,1.88,0.89c0.04,0.11,0.07,0.23,0.08,0.34c0.08,0.85,0.11,1.71,0.1,2.57
				c0.01,0.65,0.2,6.08,0.26,6.93c0.12,0.94-0.55,1.81-1.49,1.93c-0.21,0.03-0.43,0.01-0.64-0.04c-0.46-0.19-0.81-0.57-0.95-1.04
				c-0.26-1.18-3.97-5.79-4.96-6.61C3.26,5.09,2.95,4.73,2.67,4.36C2.62,4.38,2.57,4.41,2.52,4.43"/>
		</g>
		<g id="Groupe_7" transform="translate(110.252 1.769)">
			<path id="Tracé_7" class="st1" d="M1.22,10.57c0.21,0.43,3.02,0.06,4.29,0.02c0.18,0,0.64-0.05,0.75,0.09
				c0.17,0.21,0.08,0.53,0.15,0.84c-0.02,0.13-0.1,0.24-0.22,0.31c-1.85-0.06-5.62,0.08-6.03-0.11c-0.12-0.08-0.2-0.21-0.22-0.35
				c-0.04-1.42,0.01-3.17,0.01-4.59c0-0.76,0.1-5.02,0-5.32c-0.08-0.24-0.01-1.1,0.59-1.1c0.14,0,0.37,0.35,0.4,0.58
				C1.09,1.85,0.7,9.5,1.22,10.57"/>
		</g>
		<g id="Groupe_8" transform="translate(121.962 1.863)">
			<path id="Tracé_8" class="st1" d="M1.21,6.21c0.15,1.62-0.05,2.84,0.1,4.51c0.35-0.02,1.27-0.02,1.62-0.02
				c1.62-0.01,2.47,0.04,3.94-0.02c0.28-0.01,0.6,1.05-0.13,1.05H0.59c-0.47,0-0.39-0.32-0.43-0.62C0.03,10.18,0.08,3.9,0.01,2.55
				c-0.03-0.56-0.31-2.2,0.45-2.18c1.98,0.06,3.96-0.02,6.01-0.02c0.33,0,0.19,0.13,0.2,0.39c-0.1,0.51-0.14,0.58-0.45,0.61
				C5.73,1.39,2.78,1.38,1.63,1.38c-0.52,0-0.44,0.4-0.45,0.65C1.13,2.96,1.14,3.9,1.2,4.84C1.23,5,1.19,5.25,1.63,5.25
				c1.51,0,2.01-0.04,3.68-0.1C5.53,5.09,6.1,5.15,6.09,5.4c0,0,0.1,0.8-0.1,0.8C4.46,6.13,2.89,6.28,1.21,6.21"/>
		</g>
		<g id="Groupe_9" transform="translate(221.737 1.863)">
			<path id="Tracé_9" class="st1" d="M1.21,6.21c0.15,1.62-0.05,2.84,0.1,4.51c0.35-0.02,1.27-0.02,1.62-0.02
				c1.62-0.01,2.47,0.04,3.94-0.02c0.28-0.01,0.6,1.05-0.13,1.05H0.59c-0.47,0-0.39-0.32-0.43-0.62C0.03,10.18,0.08,3.9,0.01,2.55
				c-0.03-0.56-0.31-2.2,0.45-2.18c1.98,0.06,3.96-0.02,6.01-0.02c0.33,0,0.19,0.13,0.2,0.39c-0.1,0.51-0.14,0.58-0.45,0.61
				C5.73,1.39,2.78,1.38,1.63,1.38c-0.52,0-0.44,0.4-0.45,0.65C1.13,2.96,1.14,3.9,1.2,4.84C1.23,5,1.19,5.25,1.63,5.25
				c1.51,0,2.01-0.04,3.68-0.1C5.53,5.09,6.1,5.15,6.09,5.4c0,0,0.1,0.8-0.1,0.8C4.46,6.13,2.89,6.28,1.21,6.21"/>
		</g>
		<g id="Groupe_10" transform="translate(197.68 1.861)">
			<path id="Tracé_10" class="st1" d="M1.2,6.28C1.35,7.9,1.05,9.73,1.2,11.41c0.02,0.19-0.04,0.32-0.91,0.32
				c-0.3,0-0.18-0.47-0.22-0.77C0.04,9.85,0.08,3.9,0.01,2.56C-0.02,1.99-0.3,0.35,0.45,0.37c1.98,0.06,3.96-0.02,6.01-0.02
				c0.33,0,0.19,0.13,0.2,0.39C6.55,1.25,6.51,1.33,6.2,1.35C5.72,1.4,2.78,1.39,1.63,1.38c-0.52,0-0.44,0.4-0.45,0.65
				c-0.06,0.96-0.06,1.92,0,2.89C1.2,5.07,1.16,5.32,1.61,5.32c1.51,0,2.01-0.04,3.68-0.1C5.5,5.17,6.08,5.23,6.06,5.48
				c0,0,0.1,0.8-0.1,0.8C4.45,6.21,2.87,6.36,1.2,6.28"/>
		</g>
		<g id="Groupe_11" transform="translate(185.444 1.861)">
			<path id="Tracé_11" class="st1" d="M1.2,6.28C1.35,7.9,1.05,9.73,1.2,11.41c0.02,0.19-0.04,0.32-0.91,0.32
				c-0.3,0-0.18-0.47-0.22-0.77C0.04,9.85,0.08,3.9,0.01,2.56C-0.02,1.99-0.3,0.35,0.45,0.37c1.98,0.06,3.96-0.02,6.01-0.02
				c0.33,0,0.19,0.13,0.2,0.39C6.55,1.25,6.51,1.33,6.2,1.35C5.72,1.4,2.78,1.39,1.63,1.38c-0.52,0-0.45,0.4-0.45,0.65
				c-0.06,0.96-0.06,1.92,0,2.89C1.2,5.07,1.16,5.32,1.61,5.32c1.51,0,2.01-0.04,3.68-0.1C5.5,5.17,6.08,5.23,6.06,5.48
				c0,0,0.1,0.8-0.1,0.8C4.45,6.21,2.87,6.36,1.2,6.28"/>
		</g>
		<g id="Groupe_12" transform="translate(141.392 1.589)">
			<path id="Tracé_12" class="st1" d="M1.46,2.5C0.82,4.74,3.31,5.25,4.09,5.74c0.62,0.39,3.83,0.93,3.04,4.45
				c-0.34,1.14-1.31,2.12-4.22,2.07c-0.98,0-1.94-0.23-2.82-0.65c-0.08-0.16-0.2-0.2-0.15-0.52c0.13-0.32,0.1-0.73,0.43-0.52
				c0.44,0.47,3.5,0.82,4.28,0.56C6.99,10.3,5.85,7.88,5.1,7.4C4.18,6.8,2.35,6.36,1.14,5.43C-0.04,4.45-0.21,2.7,0.77,1.51
				C0.93,1.32,1.12,1.15,1.33,1C3.1-0.12,5.34,0.5,6.22,0.82C6.87,1,6.76,1.25,6.65,1.62C6.63,1.8,6.48,1.94,6.29,1.95
				C6.11,1.99,5.56,1.58,5.36,1.54C4,1.2,2.22,1.11,1.46,2.5"/>
		</g>
		<g id="Groupe_13" transform="translate(209.895 1.875)">
			<path id="Tracé_13" class="st1" d="M1.11,0.62c0.02-0.19-0.07-0.27-0.95-0.27c-0.3,0-0.18,0.47-0.22,0.77
				C-0.09,2.24,0.08,8.2,0.01,9.54c-0.03,0.56-0.31,2.2,0.45,2.18c1.98-0.06,3.78,0,5.82,0c0.33,0,0.19-0.13,0.2-0.39
				c-0.1-0.51,0.05-0.56-0.26-0.59c-0.48-0.04-3.42-0.04-4.57-0.03c-0.52,0-0.45-0.4-0.45-0.65C1.17,9.3,1.13,2.57,1.11,0.62"/>
		</g>
		<g id="Groupe_14" transform="translate(153.939 1.563)">
			<path id="Tracé_14" class="st1" d="M9.12,10.66c-1.61,1.5-3.94,1.95-5.99,1.15C-0.22,10.55-0.78,5.9,0.72,3
				C2.29,0.1,5.8,0.06,7.4,0.67c1.63,0.75,2.81,2.21,3.2,3.96C10.92,7.4,10.25,9.48,9.12,10.66 M5.66,11.07
				c1.47-0.11,3.42-0.63,3.8-4.5c0.04-3.72-1.92-4.34-2.3-4.56c-1.69-0.96-3.83-0.59-5.1,0.88C-0.18,6.87,1.64,11.23,5.66,11.07"/>
		</g>
		<g id="Groupe_15" transform="translate(170.666 1.814)">
			<path id="Tracé_15" class="st1" d="M7.97,9.74c-0.67,1.51-2.23,2.44-3.88,2.31c-1.74,0.13-3.33-0.97-3.81-2.64
				c-0.6-1.45-0.22-6.74-0.26-8.13c-0.07-0.4,0.01-0.68,0.37-0.82C0.73,0.33,1.1,0.32,1.1,0.64c0.03,0.21,0.06,5.56,0.04,7.16
				c0.09,2.94,2.1,3,3.52,3.11c1.19-0.12,2.18-0.98,2.46-2.15c0.13-2.4,0.12-4.8-0.01-7.19c0-0.4,0.07-0.8,0.2-1.18
				c0.04-0.14,0.76,0.05,0.91,0.15C8.44,0.7,8.33,1.08,8.39,1.37C8.29,2.75,8.66,8.42,7.97,9.74"/>
		</g>
	</g>
</g>
</svg>
