<svg id="Calque_1" xmlns="http://www.w3.org/2000/svg" viewBox="0 0 20 20"><style>.st0{fill:#1e605f}</style><path id="Tracé_77" class="st0" d="M7.97 12.34L12.03 10 7.97 7.66v4.68z"/><path id="Tracé_78" class="st0" d="M10 0C4.48 0 0 4.48 0 10s4.48 10 10 10 10-4.48 10-10S15.52 0 10 0zm6.25 10.01c.01 1.01-.08 2.01-.26 3.01-.15.54-.56.95-1.1 1.1-1.62.19-3.26.28-4.89.26-1.63.02-3.27-.07-4.89-.27-.54-.15-.95-.56-1.1-1.1-.18-.99-.27-2-.26-3.01-.01-1.01.08-2.01.26-3.01.15-.54.56-.96 1.1-1.11 1.62-.19 3.26-.27 4.89-.26 1.63-.02 3.27.07 4.89.27.54.15.95.56 1.1 1.1.18 1 .27 2.01.26 3.02z"/></svg>